solid Complete Setup
facet normal 1.0 0.0 0.0
  outer loop
    vertex -30.416903811595905 18.817277216097267 7.083957869535877
    vertex -30.416903811595905 14.817277216097269 18.083957869535876
    vertex -30.416903811595905 14.817277216097269 7.083957869535877
  endloop
endfacet
facet normal 1.0 0.0 0.0
  outer loop
    vertex -30.416903811595905 14.817277216097269 18.083957869535876
    vertex -30.416903811595905 18.817277216097267 7.083957869535877
    vertex -30.416903811595905 18.817277216097267 18.083957869535876
  endloop
endfacet
facet normal 0.0 1.0 0.0
  outer loop
    vertex -27.611018095422793 12.817277216097267 7.859513499819077
    vertex -27.222789527769017 12.817277216097267 7.859513499819077
    vertex -27.416903811595905 12.817277216097267 7.833957869535879
  endloop
endfacet
facet normal 0.0 1.0 0.0
  outer loop
    vertex -27.222789527769017 12.817277216097267 7.859513499819077
    vertex -27.611018095422793 12.817277216097267 7.859513499819077
    vertex -27.791903811595905 12.817277216097267 7.934438816697549
  endloop
endfacet
facet normal 0.0 1.0 0.0
  outer loop
    vertex -27.222789527769017 12.817277216097267 7.859513499819077
    vertex -27.791903811595905 12.817277216097267 7.934438816697549
    vertex -27.041903811595905 12.817277216097267 7.934438816697549
  endloop
endfacet
facet normal 0.0 1.0 0.0
  outer loop
    vertex -27.041903811595905 12.817277216097267 7.934438816697549
    vertex -27.791903811595905 12.817277216097267 7.934438816697549
    vertex -27.947233897485816 12.817277216097267 8.053627783645968
  endloop
endfacet
facet normal 0.0 1.0 0.0
  outer loop
    vertex -27.041903811595905 12.817277216097267 7.934438816697549
    vertex -27.947233897485816 12.817277216097267 8.053627783645968
    vertex -26.886573725705993 12.817277216097267 8.053627783645968
  endloop
endfacet
facet normal 0.0 1.0 0.0
  outer loop
    vertex -26.886573725705993 12.817277216097267 8.053627783645968
    vertex -27.947233897485816 12.817277216097267 8.053627783645968
    vertex -28.06642286443423 12.817277216097267 8.208957869535878
  endloop
endfacet
facet normal 0.0 1.0 0.0
  outer loop
    vertex -26.886573725705993 12.817277216097267 8.053627783645968
    vertex -28.06642286443423 12.817277216097267 8.208957869535878
    vertex -26.76738475875758 12.817277216097267 8.208957869535878
  endloop
endfacet
facet normal 0.0 1.0 0.0
  outer loop
    vertex -26.76738475875758 12.817277216097267 8.208957869535878
    vertex -28.06642286443423 12.817277216097267 8.208957869535878
    vertex -28.141348181312704 12.817277216097267 8.389843585708988
  endloop
endfacet
facet normal 0.0 1.0 0.0
  outer loop
    vertex -26.76738475875758 12.817277216097267 8.208957869535878
    vertex -28.141348181312704 12.817277216097267 8.389843585708988
    vertex -26.6924594418791 12.817277216097267 8.389843585708986
  endloop
endfacet
facet normal 0.0 1.0 0.0
  outer loop
    vertex -26.6924594418791 12.817277216097267 8.389843585708986
    vertex -28.141348181312704 12.817277216097267 8.389843585708988
    vertex -26.666903811595905 12.817277216097267 8.583957869535878
  endloop
endfacet
facet normal 0.0 1.0 0.0
  outer loop
    vertex -26.666903811595905 12.817277216097267 8.583957869535878
    vertex -28.141348181312704 12.817277216097267 8.389843585708988
    vertex -28.1669038115959 12.817277216097267 8.583957869535878
  endloop
endfacet
facet normal 0.0 1.0 0.0
  outer loop
    vertex -26.666903811595905 12.817277216097267 8.583957869535878
    vertex -28.1669038115959 12.817277216097267 8.583957869535878
    vertex -28.141348181312704 12.817277216097267 8.778072153362768
  endloop
endfacet
facet normal 0.0 1.0 0.0
  outer loop
    vertex -26.666903811595905 12.817277216097267 8.583957869535878
    vertex -28.141348181312704 12.817277216097267 8.778072153362768
    vertex -26.6924594418791 12.817277216097267 8.778072153362766
  endloop
endfacet
facet normal 0.0 1.0 0.0
  outer loop
    vertex -26.6924594418791 12.817277216097267 8.778072153362766
    vertex -28.141348181312704 12.817277216097267 8.778072153362768
    vertex -26.76738475875758 12.817277216097267 8.958957869535876
  endloop
endfacet
facet normal 0.0 1.0 0.0
  outer loop
    vertex -26.76738475875758 12.817277216097267 8.958957869535876
    vertex -28.141348181312704 12.817277216097267 8.778072153362768
    vertex -28.06642286443423 12.817277216097267 8.958957869535876
  endloop
endfacet
facet normal 0.0 1.0 0.0
  outer loop
    vertex -26.76738475875758 12.817277216097267 8.958957869535876
    vertex -28.06642286443423 12.817277216097267 8.958957869535876
    vertex -27.947233897485816 12.817277216097267 9.114287955425786
  endloop
endfacet
facet normal 0.0 1.0 0.0
  outer loop
    vertex -26.76738475875758 12.817277216097267 8.958957869535876
    vertex -27.947233897485816 12.817277216097267 9.114287955425786
    vertex -26.886573725705993 12.817277216097267 9.114287955425786
  endloop
endfacet
facet normal 0.0 1.0 0.0
  outer loop
    vertex -26.886573725705993 12.817277216097267 9.114287955425786
    vertex -27.947233897485816 12.817277216097267 9.114287955425786
    vertex -27.041903811595905 12.817277216097267 9.233476922374205
  endloop
endfacet
facet normal 0.0 1.0 0.0
  outer loop
    vertex -27.041903811595905 12.817277216097267 9.233476922374205
    vertex -27.947233897485816 12.817277216097267 9.114287955425786
    vertex -27.791903811595905 12.817277216097267 9.233476922374205
  endloop
endfacet
facet normal 0.0 1.0 0.0
  outer loop
    vertex -27.041903811595905 12.817277216097267 9.233476922374205
    vertex -27.791903811595905 12.817277216097267 9.233476922374205
    vertex -27.611018095422793 12.817277216097267 9.308402239252677
  endloop
endfacet
facet normal 0.0 1.0 0.0
  outer loop
    vertex -27.041903811595905 12.817277216097267 9.233476922374205
    vertex -27.611018095422793 12.817277216097267 9.308402239252677
    vertex -27.222789527769017 12.817277216097267 9.308402239252677
  endloop
endfacet
facet normal 0.0 1.0 0.0
  outer loop
    vertex -27.222789527769017 12.817277216097267 9.308402239252677
    vertex -27.611018095422793 12.817277216097267 9.308402239252677
    vertex -27.416903811595905 12.817277216097267 9.333957869535876
  endloop
endfacet
facet normal 0.9914448613738114 0.0 0.13052619222004508
  outer loop
    vertex -28.141348181312704 14.817277216097269 8.389843585708988
    vertex -28.1669038115959 12.817277216097267 8.583957869535878
    vertex -28.141348181312704 12.817277216097267 8.389843585708988
  endloop
endfacet
facet normal 0.9914448613738114 0.0 0.13052619222004508
  outer loop
    vertex -28.1669038115959 12.817277216097267 8.583957869535878
    vertex -28.141348181312704 14.817277216097269 8.389843585708988
    vertex -28.1669038115959 14.817277216097269 8.583957869535878
  endloop
endfacet
facet normal 0.9914448613738114 0.0 -0.1305261922200446
  outer loop
    vertex -28.1669038115959 14.817277216097269 8.583957869535878
    vertex -28.141348181312704 12.817277216097267 8.778072153362768
    vertex -28.1669038115959 12.817277216097267 8.583957869535878
  endloop
endfacet
facet normal 0.9914448613738114 0.0 -0.1305261922200446
  outer loop
    vertex -28.141348181312704 12.817277216097267 8.778072153362768
    vertex -28.1669038115959 14.817277216097269 8.583957869535878
    vertex -28.141348181312704 14.817277216097269 8.778072153362768
  endloop
endfacet
facet normal 0.9238795325112793 0.0 -0.382683432365108
  outer loop
    vertex -28.141348181312704 14.817277216097269 8.778072153362768
    vertex -28.06642286443423 12.817277216097267 8.958957869535876
    vertex -28.141348181312704 12.817277216097267 8.778072153362768
  endloop
endfacet
facet normal 0.9238795325112793 0.0 -0.382683432365108
  outer loop
    vertex -28.06642286443423 12.817277216097267 8.958957869535876
    vertex -28.141348181312704 14.817277216097269 8.778072153362768
    vertex -28.06642286443423 14.817277216097269 8.958957869535876
  endloop
endfacet
facet normal 0.7933533402912477 0.0 -0.6087614290087043
  outer loop
    vertex -28.06642286443423 14.817277216097269 8.958957869535876
    vertex -27.947233897485816 12.817277216097267 9.114287955425786
    vertex -28.06642286443423 12.817277216097267 8.958957869535876
  endloop
endfacet
facet normal 0.7933533402912477 0.0 -0.6087614290087043
  outer loop
    vertex -27.947233897485816 12.817277216097267 9.114287955425786
    vertex -28.06642286443423 14.817277216097269 8.958957869535876
    vertex -27.947233897485816 14.817277216097269 9.114287955425786
  endloop
endfacet
facet normal 0.608761429008715 0.0 -0.7933533402912395
  outer loop
    vertex -27.791903811595905 14.817277216097269 9.233476922374205
    vertex -27.947233897485816 12.817277216097267 9.114287955425786
    vertex -27.947233897485816 14.817277216097269 9.114287955425786
  endloop
endfacet
facet normal 0.608761429008715 0.0 -0.7933533402912395
  outer loop
    vertex -27.947233897485816 12.817277216097267 9.114287955425786
    vertex -27.791903811595905 14.817277216097269 9.233476922374205
    vertex -27.791903811595905 12.817277216097267 9.233476922374205
  endloop
endfacet
facet normal 0.38268343236508695 0.0 -0.923879532511288
  outer loop
    vertex -27.611018095422793 14.817277216097269 9.308402239252677
    vertex -27.791903811595905 12.817277216097267 9.233476922374205
    vertex -27.791903811595905 14.817277216097269 9.233476922374205
  endloop
endfacet
facet normal 0.38268343236508695 0.0 -0.923879532511288
  outer loop
    vertex -27.791903811595905 12.817277216097267 9.233476922374205
    vertex -27.611018095422793 14.817277216097269 9.308402239252677
    vertex -27.611018095422793 12.817277216097267 9.308402239252677
  endloop
endfacet
facet normal 0.13052619222005263 0.0 -0.9914448613738104
  outer loop
    vertex -27.416903811595905 14.817277216097269 9.333957869535876
    vertex -27.611018095422793 12.817277216097267 9.308402239252677
    vertex -27.611018095422793 14.817277216097269 9.308402239252677
  endloop
endfacet
facet normal 0.13052619222005263 0.0 -0.9914448613738104
  outer loop
    vertex -27.611018095422793 12.817277216097267 9.308402239252677
    vertex -27.416903811595905 14.817277216097269 9.333957869535876
    vertex -27.416903811595905 12.817277216097267 9.333957869535876
  endloop
endfacet
facet normal -0.13052619222005263 -0.0 -0.9914448613738104
  outer loop
    vertex -27.222789527769017 14.817277216097269 9.308402239252677
    vertex -27.416903811595905 12.817277216097267 9.333957869535876
    vertex -27.416903811595905 14.817277216097269 9.333957869535876
  endloop
endfacet
facet normal -0.13052619222005263 -0.0 -0.9914448613738104
  outer loop
    vertex -27.416903811595905 12.817277216097267 9.333957869535876
    vertex -27.222789527769017 14.817277216097269 9.308402239252677
    vertex -27.222789527769017 12.817277216097267 9.308402239252677
  endloop
endfacet
facet normal -0.38268343236508695 -0.0 -0.923879532511288
  outer loop
    vertex -27.041903811595905 14.817277216097269 9.233476922374205
    vertex -27.222789527769017 12.817277216097267 9.308402239252677
    vertex -27.222789527769017 14.817277216097269 9.308402239252677
  endloop
endfacet
facet normal -0.38268343236508695 -0.0 -0.923879532511288
  outer loop
    vertex -27.222789527769017 12.817277216097267 9.308402239252677
    vertex -27.041903811595905 14.817277216097269 9.233476922374205
    vertex -27.041903811595905 12.817277216097267 9.233476922374205
  endloop
endfacet
facet normal -0.6087614290087172 -0.0 -0.7933533402912378
  outer loop
    vertex -26.886573725705993 14.817277216097269 9.114287955425786
    vertex -27.041903811595905 12.817277216097267 9.233476922374205
    vertex -27.041903811595905 14.817277216097269 9.233476922374205
  endloop
endfacet
facet normal -0.6087614290087172 -0.0 -0.7933533402912378
  outer loop
    vertex -27.041903811595905 12.817277216097267 9.233476922374205
    vertex -26.886573725705993 14.817277216097269 9.114287955425786
    vertex -26.886573725705993 12.817277216097267 9.114287955425786
  endloop
endfacet
facet normal -0.7933533402912465 -0.0 -0.6087614290087061
  outer loop
    vertex -26.886573725705993 14.817277216097269 9.114287955425786
    vertex -26.76738475875758 12.817277216097267 8.958957869535876
    vertex -26.886573725705993 12.817277216097267 9.114287955425786
  endloop
endfacet
facet normal -0.7933533402912465 -0.0 -0.6087614290087061
  outer loop
    vertex -26.76738475875758 12.817277216097267 8.958957869535876
    vertex -26.886573725705993 14.817277216097269 9.114287955425786
    vertex -26.76738475875758 14.817277216097269 8.958957869535876
  endloop
endfacet
facet normal -0.9238795325112797 -0.0 -0.38268343236510666
  outer loop
    vertex -26.76738475875758 14.817277216097269 8.958957869535876
    vertex -26.6924594418791 12.817277216097267 8.778072153362766
    vertex -26.76738475875758 12.817277216097267 8.958957869535876
  endloop
endfacet
facet normal -0.9238795325112797 -0.0 -0.38268343236510666
  outer loop
    vertex -26.6924594418791 12.817277216097267 8.778072153362766
    vertex -26.76738475875758 14.817277216097269 8.958957869535876
    vertex -26.6924594418791 14.817277216097269 8.778072153362766
  endloop
endfacet
facet normal -0.9914448613738114 -0.0 -0.13052619222004508
  outer loop
    vertex -26.6924594418791 14.817277216097269 8.778072153362766
    vertex -26.666903811595905 12.817277216097267 8.583957869535878
    vertex -26.6924594418791 12.817277216097267 8.778072153362766
  endloop
endfacet
facet normal -0.9914448613738114 -0.0 -0.13052619222004508
  outer loop
    vertex -26.666903811595905 12.817277216097267 8.583957869535878
    vertex -26.6924594418791 14.817277216097269 8.778072153362766
    vertex -26.666903811595905 14.817277216097269 8.583957869535878
  endloop
endfacet
facet normal -0.9914448613738114 0.0 0.1305261922200446
  outer loop
    vertex -26.666903811595905 14.817277216097269 8.583957869535878
    vertex -26.6924594418791 12.817277216097267 8.389843585708986
    vertex -26.666903811595905 12.817277216097267 8.583957869535878
  endloop
endfacet
facet normal -0.9914448613738114 0.0 0.1305261922200446
  outer loop
    vertex -26.6924594418791 12.817277216097267 8.389843585708986
    vertex -26.666903811595905 14.817277216097269 8.583957869535878
    vertex -26.6924594418791 14.817277216097269 8.389843585708986
  endloop
endfacet
facet normal -0.9238795325112793 0.0 0.382683432365108
  outer loop
    vertex -26.6924594418791 14.817277216097269 8.389843585708986
    vertex -26.76738475875758 12.817277216097267 8.208957869535878
    vertex -26.6924594418791 12.817277216097267 8.389843585708986
  endloop
endfacet
facet normal -0.9238795325112793 0.0 0.382683432365108
  outer loop
    vertex -26.76738475875758 12.817277216097267 8.208957869535878
    vertex -26.6924594418791 14.817277216097269 8.389843585708986
    vertex -26.76738475875758 14.817277216097269 8.208957869535878
  endloop
endfacet
facet normal -0.7933533402912465 0.0 0.6087614290087061
  outer loop
    vertex -26.76738475875758 14.817277216097269 8.208957869535878
    vertex -26.886573725705993 12.817277216097267 8.053627783645968
    vertex -26.76738475875758 12.817277216097267 8.208957869535878
  endloop
endfacet
facet normal -0.7933533402912465 0.0 0.6087614290087061
  outer loop
    vertex -26.886573725705993 12.817277216097267 8.053627783645968
    vertex -26.76738475875758 14.817277216097269 8.208957869535878
    vertex -26.886573725705993 14.817277216097269 8.053627783645968
  endloop
endfacet
facet normal -0.6087614290087172 0.0 0.7933533402912378
  outer loop
    vertex -26.886573725705993 12.817277216097267 8.053627783645968
    vertex -27.041903811595905 14.817277216097269 7.934438816697549
    vertex -27.041903811595905 12.817277216097267 7.934438816697549
  endloop
endfacet
facet normal -0.6087614290087172 0.0 0.7933533402912378
  outer loop
    vertex -27.041903811595905 14.817277216097269 7.934438816697549
    vertex -26.886573725705993 12.817277216097267 8.053627783645968
    vertex -26.886573725705993 14.817277216097269 8.053627783645968
  endloop
endfacet
facet normal -0.38268343236508695 0.0 0.923879532511288
  outer loop
    vertex -27.041903811595905 12.817277216097267 7.934438816697549
    vertex -27.222789527769017 14.817277216097269 7.859513499819077
    vertex -27.222789527769017 12.817277216097267 7.859513499819077
  endloop
endfacet
facet normal -0.38268343236508695 0.0 0.923879532511288
  outer loop
    vertex -27.222789527769017 14.817277216097269 7.859513499819077
    vertex -27.041903811595905 12.817277216097267 7.934438816697549
    vertex -27.041903811595905 14.817277216097269 7.934438816697549
  endloop
endfacet
facet normal -0.13052619222005263 0.0 0.9914448613738104
  outer loop
    vertex -27.222789527769017 12.817277216097267 7.859513499819077
    vertex -27.416903811595905 14.817277216097269 7.833957869535879
    vertex -27.416903811595905 12.817277216097267 7.833957869535879
  endloop
endfacet
facet normal -0.13052619222005263 0.0 0.9914448613738104
  outer loop
    vertex -27.416903811595905 14.817277216097269 7.833957869535879
    vertex -27.222789527769017 12.817277216097267 7.859513499819077
    vertex -27.222789527769017 14.817277216097269 7.859513499819077
  endloop
endfacet
facet normal 0.13052619222005263 0.0 0.9914448613738104
  outer loop
    vertex -27.416903811595905 12.817277216097267 7.833957869535879
    vertex -27.611018095422793 14.817277216097269 7.859513499819077
    vertex -27.611018095422793 12.817277216097267 7.859513499819077
  endloop
endfacet
facet normal 0.13052619222005263 0.0 0.9914448613738104
  outer loop
    vertex -27.611018095422793 14.817277216097269 7.859513499819077
    vertex -27.416903811595905 12.817277216097267 7.833957869535879
    vertex -27.416903811595905 14.817277216097269 7.833957869535879
  endloop
endfacet
facet normal 0.38268343236508695 0.0 0.923879532511288
  outer loop
    vertex -27.611018095422793 12.817277216097267 7.859513499819077
    vertex -27.791903811595905 14.817277216097269 7.934438816697549
    vertex -27.791903811595905 12.817277216097267 7.934438816697549
  endloop
endfacet
facet normal 0.38268343236508695 0.0 0.923879532511288
  outer loop
    vertex -27.791903811595905 14.817277216097269 7.934438816697549
    vertex -27.611018095422793 12.817277216097267 7.859513499819077
    vertex -27.611018095422793 14.817277216097269 7.859513499819077
  endloop
endfacet
facet normal 0.6087614290087172 0.0 0.7933533402912378
  outer loop
    vertex -27.791903811595905 12.817277216097267 7.934438816697549
    vertex -27.947233897485816 14.817277216097269 8.053627783645968
    vertex -27.947233897485816 12.817277216097267 8.053627783645968
  endloop
endfacet
facet normal 0.6087614290087172 0.0 0.7933533402912378
  outer loop
    vertex -27.947233897485816 14.817277216097269 8.053627783645968
    vertex -27.791903811595905 12.817277216097267 7.934438816697549
    vertex -27.791903811595905 14.817277216097269 7.934438816697549
  endloop
endfacet
facet normal 0.7933533402912465 0.0 0.6087614290087061
  outer loop
    vertex -27.947233897485816 14.817277216097269 8.053627783645968
    vertex -28.06642286443423 12.817277216097267 8.208957869535878
    vertex -27.947233897485816 12.817277216097267 8.053627783645968
  endloop
endfacet
facet normal 0.7933533402912465 0.0 0.6087614290087061
  outer loop
    vertex -28.06642286443423 12.817277216097267 8.208957869535878
    vertex -27.947233897485816 14.817277216097269 8.053627783645968
    vertex -28.06642286443423 14.817277216097269 8.208957869535878
  endloop
endfacet
facet normal 0.9238795325112797 0.0 0.38268343236510666
  outer loop
    vertex -28.06642286443423 14.817277216097269 8.208957869535878
    vertex -28.141348181312704 12.817277216097267 8.389843585708988
    vertex -28.06642286443423 12.817277216097267 8.208957869535878
  endloop
endfacet
facet normal 0.9238795325112797 0.0 0.38268343236510666
  outer loop
    vertex -28.141348181312704 12.817277216097267 8.389843585708988
    vertex -28.06642286443423 14.817277216097269 8.208957869535878
    vertex -28.141348181312704 14.817277216097269 8.389843585708988
  endloop
endfacet
facet normal 0.0 1.0 0.0
  outer loop
    vertex -19.611018095422768 12.817277216097267 7.859513499819073
    vertex -19.22278952776899 12.817277216097267 7.859513499819073
    vertex -19.41690381159588 12.817277216097267 7.833957869535874
  endloop
endfacet
facet normal 0.0 1.0 0.0
  outer loop
    vertex -19.22278952776899 12.817277216097267 7.859513499819073
    vertex -19.611018095422768 12.817277216097267 7.859513499819073
    vertex -19.791903811595883 12.817277216097267 7.934438816697545
  endloop
endfacet
facet normal 0.0 1.0 0.0
  outer loop
    vertex -19.22278952776899 12.817277216097267 7.859513499819073
    vertex -19.791903811595883 12.817277216097267 7.934438816697545
    vertex -19.041903811595876 12.817277216097267 7.934438816697545
  endloop
endfacet
facet normal 0.0 1.0 0.0
  outer loop
    vertex -19.041903811595876 12.817277216097267 7.934438816697545
    vertex -19.791903811595883 12.817277216097267 7.934438816697545
    vertex -19.94723389748579 12.817277216097267 8.053627783645963
  endloop
endfacet
facet normal 0.0 1.0 0.0
  outer loop
    vertex -19.041903811595876 12.817277216097267 7.934438816697545
    vertex -19.94723389748579 12.817277216097267 8.053627783645963
    vertex -18.88657372570597 12.817277216097267 8.053627783645963
  endloop
endfacet
facet normal 0.0 1.0 0.0
  outer loop
    vertex -18.88657372570597 12.817277216097267 8.053627783645963
    vertex -19.94723389748579 12.817277216097267 8.053627783645963
    vertex -20.066422864434205 12.817277216097267 8.208957869535874
  endloop
endfacet
facet normal 0.0 1.0 0.0
  outer loop
    vertex -18.88657372570597 12.817277216097267 8.053627783645963
    vertex -20.066422864434205 12.817277216097267 8.208957869535874
    vertex -18.767384758757554 12.817277216097267 8.208957869535874
  endloop
endfacet
facet normal 0.0 1.0 0.0
  outer loop
    vertex -18.767384758757554 12.817277216097267 8.208957869535874
    vertex -20.066422864434205 12.817277216097267 8.208957869535874
    vertex -18.692459441879077 12.817277216097267 8.389843585708983
  endloop
endfacet
facet normal 0.0 1.0 0.0
  outer loop
    vertex -18.692459441879077 12.817277216097267 8.389843585708983
    vertex -20.066422864434205 12.817277216097267 8.208957869535874
    vertex -20.14134818131268 12.817277216097267 8.389843585708984
  endloop
endfacet
facet normal 0.0 1.0 0.0
  outer loop
    vertex -18.692459441879077 12.817277216097267 8.389843585708983
    vertex -20.14134818131268 12.817277216097267 8.389843585708984
    vertex -18.66690381159588 12.817277216097267 8.583957869535874
  endloop
endfacet
facet normal 0.0 1.0 0.0
  outer loop
    vertex -18.66690381159588 12.817277216097267 8.583957869535874
    vertex -20.14134818131268 12.817277216097267 8.389843585708984
    vertex -20.16690381159588 12.817277216097267 8.583957869535874
  endloop
endfacet
facet normal 0.0 1.0 0.0
  outer loop
    vertex -18.66690381159588 12.817277216097267 8.583957869535874
    vertex -20.16690381159588 12.817277216097267 8.583957869535874
    vertex -20.14134818131268 12.817277216097267 8.778072153362764
  endloop
endfacet
facet normal 0.0 1.0 0.0
  outer loop
    vertex -18.66690381159588 12.817277216097267 8.583957869535874
    vertex -20.14134818131268 12.817277216097267 8.778072153362764
    vertex -18.692459441879077 12.817277216097267 8.778072153362764
  endloop
endfacet
facet normal 0.0 1.0 0.0
  outer loop
    vertex -18.692459441879077 12.817277216097267 8.778072153362764
    vertex -20.14134818131268 12.817277216097267 8.778072153362764
    vertex -18.767384758757554 12.817277216097267 8.958957869535874
  endloop
endfacet
facet normal 0.0 1.0 0.0
  outer loop
    vertex -18.767384758757554 12.817277216097267 8.958957869535874
    vertex -20.14134818131268 12.817277216097267 8.778072153362764
    vertex -20.066422864434205 12.817277216097267 8.958957869535874
  endloop
endfacet
facet normal 0.0 1.0 0.0
  outer loop
    vertex -18.767384758757554 12.817277216097267 8.958957869535874
    vertex -20.066422864434205 12.817277216097267 8.958957869535874
    vertex -18.88657372570597 12.817277216097267 9.114287955425786
  endloop
endfacet
facet normal 0.0 1.0 0.0
  outer loop
    vertex -18.88657372570597 12.817277216097267 9.114287955425786
    vertex -20.066422864434205 12.817277216097267 8.958957869535874
    vertex -19.94723389748579 12.817277216097267 9.114287955425786
  endloop
endfacet
facet normal 0.0 1.0 0.0
  outer loop
    vertex -18.88657372570597 12.817277216097267 9.114287955425786
    vertex -19.94723389748579 12.817277216097267 9.114287955425786
    vertex -19.791903811595883 12.817277216097267 9.233476922374201
  endloop
endfacet
facet normal 0.0 1.0 0.0
  outer loop
    vertex -18.88657372570597 12.817277216097267 9.114287955425786
    vertex -19.791903811595883 12.817277216097267 9.233476922374201
    vertex -19.041903811595876 12.817277216097267 9.233476922374201
  endloop
endfacet
facet normal 0.0 1.0 0.0
  outer loop
    vertex -19.041903811595876 12.817277216097267 9.233476922374201
    vertex -19.791903811595883 12.817277216097267 9.233476922374201
    vertex -19.611018095422768 12.817277216097267 9.308402239252676
  endloop
endfacet
facet normal 0.0 1.0 0.0
  outer loop
    vertex -19.041903811595876 12.817277216097267 9.233476922374201
    vertex -19.611018095422768 12.817277216097267 9.308402239252676
    vertex -19.22278952776899 12.817277216097267 9.308402239252676
  endloop
endfacet
facet normal 0.0 1.0 0.0
  outer loop
    vertex -19.22278952776899 12.817277216097267 9.308402239252676
    vertex -19.611018095422768 12.817277216097267 9.308402239252676
    vertex -19.41690381159588 12.817277216097267 9.333957869535874
  endloop
endfacet
facet normal -0.9914448613738114 0.0 -0.1305261922200451
  outer loop
    vertex -18.692459441879077 14.817277216097269 8.778072153362764
    vertex -18.66690381159588 12.817277216097267 8.583957869535874
    vertex -18.692459441879077 12.817277216097267 8.778072153362764
  endloop
endfacet
facet normal -0.9914448613738114 0.0 -0.1305261922200451
  outer loop
    vertex -18.66690381159588 12.817277216097267 8.583957869535874
    vertex -18.692459441879077 14.817277216097269 8.778072153362764
    vertex -18.66690381159588 14.817277216097269 8.583957869535874
  endloop
endfacet
facet normal -0.9914448613738114 0.0 0.13052619222004413
  outer loop
    vertex -18.66690381159588 14.817277216097269 8.583957869535874
    vertex -18.692459441879077 12.817277216097267 8.389843585708983
    vertex -18.66690381159588 12.817277216097267 8.583957869535874
  endloop
endfacet
facet normal -0.9914448613738114 0.0 0.13052619222004413
  outer loop
    vertex -18.692459441879077 12.817277216097267 8.389843585708983
    vertex -18.66690381159588 14.817277216097269 8.583957869535874
    vertex -18.692459441879077 14.817277216097269 8.389843585708983
  endloop
endfacet
facet normal -0.9238795325112797 0.0 0.38268343236510666
  outer loop
    vertex -18.692459441879077 14.817277216097269 8.389843585708983
    vertex -18.767384758757554 12.817277216097267 8.208957869535874
    vertex -18.692459441879077 12.817277216097267 8.389843585708983
  endloop
endfacet
facet normal -0.9238795325112797 0.0 0.38268343236510666
  outer loop
    vertex -18.767384758757554 12.817277216097267 8.208957869535874
    vertex -18.692459441879077 14.817277216097269 8.389843585708983
    vertex -18.767384758757554 14.817277216097269 8.208957869535874
  endloop
endfacet
facet normal -0.7933533402912465 0.0 0.6087614290087061
  outer loop
    vertex -18.767384758757554 14.817277216097269 8.208957869535874
    vertex -18.88657372570597 12.817277216097267 8.053627783645963
    vertex -18.767384758757554 12.817277216097267 8.208957869535874
  endloop
endfacet
facet normal -0.7933533402912465 0.0 0.6087614290087061
  outer loop
    vertex -18.88657372570597 12.817277216097267 8.053627783645963
    vertex -18.767384758757554 14.817277216097269 8.208957869535874
    vertex -18.88657372570597 14.817277216097269 8.053627783645963
  endloop
endfacet
facet normal -0.6087614290087312 0.0 0.7933533402912273
  outer loop
    vertex -18.88657372570597 12.817277216097267 8.053627783645963
    vertex -19.041903811595876 14.817277216097269 7.934438816697545
    vertex -19.041903811595876 12.817277216097267 7.934438816697545
  endloop
endfacet
facet normal -0.6087614290087312 0.0 0.7933533402912273
  outer loop
    vertex -19.041903811595876 14.817277216097269 7.934438816697545
    vertex -18.88657372570597 12.817277216097267 8.053627783645963
    vertex -18.88657372570597 14.817277216097269 8.053627783645963
  endloop
endfacet
facet normal -0.3826834323650768 0.0 0.9238795325112923
  outer loop
    vertex -19.041903811595876 12.817277216097267 7.934438816697545
    vertex -19.22278952776899 14.817277216097269 7.859513499819073
    vertex -19.22278952776899 12.817277216097267 7.859513499819073
  endloop
endfacet
facet normal -0.3826834323650768 0.0 0.9238795325112923
  outer loop
    vertex -19.22278952776899 14.817277216097269 7.859513499819073
    vertex -19.041903811595876 12.817277216097267 7.934438816697545
    vertex -19.041903811595876 14.817277216097269 7.934438816697545
  endloop
endfacet
facet normal -0.13052619222005263 0.0 0.9914448613738104
  outer loop
    vertex -19.22278952776899 12.817277216097267 7.859513499819073
    vertex -19.41690381159588 14.817277216097269 7.833957869535874
    vertex -19.41690381159588 12.817277216097267 7.833957869535874
  endloop
endfacet
facet normal -0.13052619222005263 0.0 0.9914448613738104
  outer loop
    vertex -19.41690381159588 14.817277216097269 7.833957869535874
    vertex -19.22278952776899 12.817277216097267 7.859513499819073
    vertex -19.22278952776899 14.817277216097269 7.859513499819073
  endloop
endfacet
facet normal 0.13052619222005263 0.0 0.9914448613738104
  outer loop
    vertex -19.41690381159588 12.817277216097267 7.833957869535874
    vertex -19.611018095422768 14.817277216097269 7.859513499819073
    vertex -19.611018095422768 12.817277216097267 7.859513499819073
  endloop
endfacet
facet normal 0.13052619222005263 0.0 0.9914448613738104
  outer loop
    vertex -19.611018095422768 14.817277216097269 7.859513499819073
    vertex -19.41690381159588 12.817277216097267 7.833957869535874
    vertex -19.41690381159588 14.817277216097269 7.833957869535874
  endloop
endfacet
facet normal 0.3826834323650768 0.0 0.9238795325112923
  outer loop
    vertex -19.611018095422768 12.817277216097267 7.859513499819073
    vertex -19.791903811595883 14.817277216097269 7.934438816697545
    vertex -19.791903811595883 12.817277216097267 7.934438816697545
  endloop
endfacet
facet normal 0.3826834323650768 0.0 0.9238795325112923
  outer loop
    vertex -19.791903811595883 14.817277216097269 7.934438816697545
    vertex -19.611018095422768 12.817277216097267 7.859513499819073
    vertex -19.611018095422768 14.817277216097269 7.859513499819073
  endloop
endfacet
facet normal 0.6087614290087312 0.0 0.7933533402912273
  outer loop
    vertex -19.791903811595883 12.817277216097267 7.934438816697545
    vertex -19.94723389748579 14.817277216097269 8.053627783645963
    vertex -19.94723389748579 12.817277216097267 8.053627783645963
  endloop
endfacet
facet normal 0.6087614290087312 0.0 0.7933533402912273
  outer loop
    vertex -19.94723389748579 14.817277216097269 8.053627783645963
    vertex -19.791903811595883 12.817277216097267 7.934438816697545
    vertex -19.791903811595883 14.817277216097269 7.934438816697545
  endloop
endfacet
facet normal 0.793353340291249 0.0 0.6087614290087026
  outer loop
    vertex -19.94723389748579 14.817277216097269 8.053627783645963
    vertex -20.066422864434205 12.817277216097267 8.208957869535874
    vertex -19.94723389748579 12.817277216097267 8.053627783645963
  endloop
endfacet
facet normal 0.793353340291249 0.0 0.6087614290087026
  outer loop
    vertex -20.066422864434205 12.817277216097267 8.208957869535874
    vertex -19.94723389748579 14.817277216097269 8.053627783645963
    vertex -20.066422864434205 14.817277216097269 8.208957869535874
  endloop
endfacet
facet normal 0.9238795325112793 0.0 0.382683432365108
  outer loop
    vertex -20.066422864434205 14.817277216097269 8.208957869535874
    vertex -20.14134818131268 12.817277216097267 8.389843585708984
    vertex -20.066422864434205 12.817277216097267 8.208957869535874
  endloop
endfacet
facet normal 0.9238795325112793 0.0 0.382683432365108
  outer loop
    vertex -20.14134818131268 12.817277216097267 8.389843585708984
    vertex -20.066422864434205 14.817277216097269 8.208957869535874
    vertex -20.14134818131268 14.817277216097269 8.389843585708984
  endloop
endfacet
facet normal 0.9914448613738114 0.0 0.1305261922200446
  outer loop
    vertex -20.14134818131268 14.817277216097269 8.389843585708984
    vertex -20.16690381159588 12.817277216097267 8.583957869535874
    vertex -20.14134818131268 12.817277216097267 8.389843585708984
  endloop
endfacet
facet normal 0.9914448613738114 0.0 0.1305261922200446
  outer loop
    vertex -20.16690381159588 12.817277216097267 8.583957869535874
    vertex -20.14134818131268 14.817277216097269 8.389843585708984
    vertex -20.16690381159588 14.817277216097269 8.583957869535874
  endloop
endfacet
facet normal 0.9914448613738114 0.0 -0.1305261922200446
  outer loop
    vertex -20.16690381159588 14.817277216097269 8.583957869535874
    vertex -20.14134818131268 12.817277216097267 8.778072153362764
    vertex -20.16690381159588 12.817277216097267 8.583957869535874
  endloop
endfacet
facet normal 0.9914448613738114 0.0 -0.1305261922200446
  outer loop
    vertex -20.14134818131268 12.817277216097267 8.778072153362764
    vertex -20.16690381159588 14.817277216097269 8.583957869535874
    vertex -20.14134818131268 14.817277216097269 8.778072153362764
  endloop
endfacet
facet normal 0.9238795325112797 0.0 -0.38268343236510666
  outer loop
    vertex -20.14134818131268 14.817277216097269 8.778072153362764
    vertex -20.066422864434205 12.817277216097267 8.958957869535874
    vertex -20.14134818131268 12.817277216097267 8.778072153362764
  endloop
endfacet
facet normal 0.9238795325112797 0.0 -0.38268343236510666
  outer loop
    vertex -20.066422864434205 12.817277216097267 8.958957869535874
    vertex -20.14134818131268 14.817277216097269 8.778072153362764
    vertex -20.066422864434205 14.817277216097269 8.958957869535874
  endloop
endfacet
facet normal 0.7933533402912477 0.0 -0.6087614290087043
  outer loop
    vertex -20.066422864434205 14.817277216097269 8.958957869535874
    vertex -19.94723389748579 12.817277216097267 9.114287955425786
    vertex -20.066422864434205 12.817277216097267 8.958957869535874
  endloop
endfacet
facet normal 0.7933533402912477 0.0 -0.6087614290087043
  outer loop
    vertex -19.94723389748579 12.817277216097267 9.114287955425786
    vertex -20.066422864434205 14.817277216097269 8.958957869535874
    vertex -19.94723389748579 14.817277216097269 9.114287955425786
  endloop
endfacet
facet normal 0.608761429008729 0.0 -0.793353340291229
  outer loop
    vertex -19.791903811595883 14.817277216097269 9.233476922374201
    vertex -19.94723389748579 12.817277216097267 9.114287955425786
    vertex -19.94723389748579 14.817277216097269 9.114287955425786
  endloop
endfacet
facet normal 0.608761429008729 0.0 -0.793353340291229
  outer loop
    vertex -19.94723389748579 12.817277216097267 9.114287955425786
    vertex -19.791903811595883 14.817277216097269 9.233476922374201
    vertex -19.791903811595883 12.817277216097267 9.233476922374201
  endloop
endfacet
facet normal 0.38268343236507996 0.0 -0.9238795325112911
  outer loop
    vertex -19.611018095422768 14.817277216097269 9.308402239252676
    vertex -19.791903811595883 12.817277216097267 9.233476922374201
    vertex -19.791903811595883 14.817277216097269 9.233476922374201
  endloop
endfacet
facet normal 0.38268343236507996 0.0 -0.9238795325112911
  outer loop
    vertex -19.791903811595883 12.817277216097267 9.233476922374201
    vertex -19.611018095422768 14.817277216097269 9.308402239252676
    vertex -19.611018095422768 12.817277216097267 9.308402239252676
  endloop
endfacet
facet normal 0.13052619222005263 0.0 -0.9914448613738104
  outer loop
    vertex -19.41690381159588 14.817277216097269 9.333957869535874
    vertex -19.611018095422768 12.817277216097267 9.308402239252676
    vertex -19.611018095422768 14.817277216097269 9.308402239252676
  endloop
endfacet
facet normal 0.13052619222005263 0.0 -0.9914448613738104
  outer loop
    vertex -19.611018095422768 12.817277216097267 9.308402239252676
    vertex -19.41690381159588 14.817277216097269 9.333957869535874
    vertex -19.41690381159588 12.817277216097267 9.333957869535874
  endloop
endfacet
facet normal -0.13052619222005263 -0.0 -0.9914448613738104
  outer loop
    vertex -19.22278952776899 14.817277216097269 9.308402239252676
    vertex -19.41690381159588 12.817277216097267 9.333957869535874
    vertex -19.41690381159588 14.817277216097269 9.333957869535874
  endloop
endfacet
facet normal -0.13052619222005263 -0.0 -0.9914448613738104
  outer loop
    vertex -19.41690381159588 12.817277216097267 9.333957869535874
    vertex -19.22278952776899 14.817277216097269 9.308402239252676
    vertex -19.22278952776899 12.817277216097267 9.308402239252676
  endloop
endfacet
facet normal -0.38268343236507996 -0.0 -0.9238795325112911
  outer loop
    vertex -19.041903811595876 14.817277216097269 9.233476922374201
    vertex -19.22278952776899 12.817277216097267 9.308402239252676
    vertex -19.22278952776899 14.817277216097269 9.308402239252676
  endloop
endfacet
facet normal -0.38268343236507996 -0.0 -0.9238795325112911
  outer loop
    vertex -19.22278952776899 12.817277216097267 9.308402239252676
    vertex -19.041903811595876 14.817277216097269 9.233476922374201
    vertex -19.041903811595876 12.817277216097267 9.233476922374201
  endloop
endfacet
facet normal -0.608761429008729 -0.0 -0.793353340291229
  outer loop
    vertex -18.88657372570597 14.817277216097269 9.114287955425786
    vertex -19.041903811595876 12.817277216097267 9.233476922374201
    vertex -19.041903811595876 14.817277216097269 9.233476922374201
  endloop
endfacet
facet normal -0.608761429008729 -0.0 -0.793353340291229
  outer loop
    vertex -19.041903811595876 12.817277216097267 9.233476922374201
    vertex -18.88657372570597 14.817277216097269 9.114287955425786
    vertex -18.88657372570597 12.817277216097267 9.114287955425786
  endloop
endfacet
facet normal -0.793353340291249 -0.0 -0.6087614290087026
  outer loop
    vertex -18.88657372570597 14.817277216097269 9.114287955425786
    vertex -18.767384758757554 12.817277216097267 8.958957869535874
    vertex -18.88657372570597 12.817277216097267 9.114287955425786
  endloop
endfacet
facet normal -0.793353340291249 -0.0 -0.6087614290087026
  outer loop
    vertex -18.767384758757554 12.817277216097267 8.958957869535874
    vertex -18.88657372570597 14.817277216097269 9.114287955425786
    vertex -18.767384758757554 14.817277216097269 8.958957869535874
  endloop
endfacet
facet normal -0.9238795325112797 -0.0 -0.38268343236510666
  outer loop
    vertex -18.767384758757554 14.817277216097269 8.958957869535874
    vertex -18.692459441879077 12.817277216097267 8.778072153362764
    vertex -18.767384758757554 12.817277216097267 8.958957869535874
  endloop
endfacet
facet normal -0.9238795325112797 -0.0 -0.38268343236510666
  outer loop
    vertex -18.692459441879077 12.817277216097267 8.778072153362764
    vertex -18.767384758757554 14.817277216097269 8.958957869535874
    vertex -18.692459441879077 14.817277216097269 8.778072153362764
  endloop
endfacet
facet normal -1.0 -1.4099832412739493e-15 5.127211786450722e-16
  outer loop
    vertex -16.416903811595883 18.817277216097267 18.083957869535876
    vertex -16.416903811595883 14.817277216097269 7.083957869535874
    vertex -16.416903811595883 14.817277216097269 18.083957869535876
  endloop
endfacet
facet normal -1.0 -1.4099832412739493e-15 5.127211786450722e-16
  outer loop
    vertex -16.416903811595883 14.817277216097269 7.083957869535874
    vertex -16.416903811595883 18.817277216097267 18.083957869535876
    vertex -16.416903811595898 18.817277216097267 7.083957869535877
  endloop
endfacet
facet normal -1.0071308866242477e-16 0.0 -1.0
  outer loop
    vertex -16.416903811595883 18.817277216097267 18.083957869535876
    vertex -30.416903811595905 14.817277216097269 18.083957869535876
    vertex -30.416903811595905 18.817277216097267 18.083957869535876
  endloop
endfacet
facet normal -1.0071308866242477e-16 0.0 -1.0
  outer loop
    vertex -30.416903811595905 14.817277216097269 18.083957869535876
    vertex -16.416903811595883 18.817277216097267 18.083957869535876
    vertex -16.416903811595883 14.817277216097269 18.083957869535876
  endloop
endfacet
facet normal 0.0 -1.0 0.0
  outer loop
    vertex -16.416903811595883 18.817277216097267 18.083957869535876
    vertex -30.416903811595905 18.817277216097267 7.083957869535877
    vertex -16.416903811595898 18.817277216097267 7.083957869535877
  endloop
endfacet
facet normal 0.0 -1.0 0.0
  outer loop
    vertex -30.416903811595905 18.817277216097267 7.083957869535877
    vertex -16.416903811595883 18.817277216097267 18.083957869535876
    vertex -30.416903811595905 18.817277216097267 18.083957869535876
  endloop
endfacet
facet normal 1.0071308866242484e-16 -3.5249581031848713e-16 1.0
  outer loop
    vertex -16.416903811595883 14.817277216097269 7.083957869535874
    vertex -30.416903811595905 18.817277216097267 7.083957869535877
    vertex -30.416903811595905 14.817277216097269 7.083957869535877
  endloop
endfacet
facet normal 1.0071308866242484e-16 -3.5249581031848713e-16 1.0
  outer loop
    vertex -30.416903811595905 18.817277216097267 7.083957869535877
    vertex -16.416903811595883 14.817277216097269 7.083957869535874
    vertex -16.416903811595898 18.817277216097267 7.083957869535877
  endloop
endfacet
facet normal 0.0 1.0 0.0
  outer loop
    vertex -27.416903811595905 14.817277216097269 7.833957869535879
    vertex -19.611018095422768 14.817277216097269 7.859513499819073
    vertex -19.41690381159588 14.817277216097269 7.833957869535874
  endloop
endfacet
facet normal 0.0 1.0 0.0
  outer loop
    vertex -19.611018095422768 14.817277216097269 7.859513499819073
    vertex -27.416903811595905 14.817277216097269 7.833957869535879
    vertex -27.222789527769017 14.817277216097269 7.859513499819077
  endloop
endfacet
facet normal 0.0 1.0 0.0
  outer loop
    vertex -19.611018095422768 14.817277216097269 7.859513499819073
    vertex -27.222789527769017 14.817277216097269 7.859513499819077
    vertex -19.791903811595883 14.817277216097269 7.934438816697545
  endloop
endfacet
facet normal 0.0 1.0 0.0
  outer loop
    vertex -19.791903811595883 14.817277216097269 7.934438816697545
    vertex -27.222789527769017 14.817277216097269 7.859513499819077
    vertex -27.041903811595905 14.817277216097269 7.934438816697549
  endloop
endfacet
facet normal 0.0 1.0 0.0
  outer loop
    vertex -19.791903811595883 14.817277216097269 7.934438816697545
    vertex -27.041903811595905 14.817277216097269 7.934438816697549
    vertex -19.94723389748579 14.817277216097269 8.053627783645963
  endloop
endfacet
facet normal 0.0 1.0 0.0
  outer loop
    vertex -19.94723389748579 14.817277216097269 8.053627783645963
    vertex -27.041903811595905 14.817277216097269 7.934438816697549
    vertex -26.886573725705993 14.817277216097269 8.053627783645968
  endloop
endfacet
facet normal 0.0 1.0 0.0
  outer loop
    vertex -19.94723389748579 14.817277216097269 8.053627783645963
    vertex -26.886573725705993 14.817277216097269 8.053627783645968
    vertex -20.066422864434205 14.817277216097269 8.208957869535874
  endloop
endfacet
facet normal 0.0 1.0 0.0
  outer loop
    vertex -20.066422864434205 14.817277216097269 8.208957869535874
    vertex -26.886573725705993 14.817277216097269 8.053627783645968
    vertex -26.76738475875758 14.817277216097269 8.208957869535878
  endloop
endfacet
facet normal 0.0 1.0 0.0
  outer loop
    vertex -20.066422864434205 14.817277216097269 8.208957869535874
    vertex -26.76738475875758 14.817277216097269 8.208957869535878
    vertex -20.14134818131268 14.817277216097269 8.389843585708984
  endloop
endfacet
facet normal 0.0 1.0 0.0
  outer loop
    vertex -20.14134818131268 14.817277216097269 8.389843585708984
    vertex -26.76738475875758 14.817277216097269 8.208957869535878
    vertex -26.6924594418791 14.817277216097269 8.389843585708986
  endloop
endfacet
facet normal 0.0 1.0 0.0
  outer loop
    vertex -20.14134818131268 14.817277216097269 8.389843585708984
    vertex -26.6924594418791 14.817277216097269 8.389843585708986
    vertex -20.16690381159588 14.817277216097269 8.583957869535874
  endloop
endfacet
facet normal 0.0 1.0 0.0
  outer loop
    vertex -20.16690381159588 14.817277216097269 8.583957869535874
    vertex -26.6924594418791 14.817277216097269 8.389843585708986
    vertex -26.666903811595905 14.817277216097269 8.583957869535878
  endloop
endfacet
facet normal 0.0 1.0 0.0
  outer loop
    vertex -20.16690381159588 14.817277216097269 8.583957869535874
    vertex -26.666903811595905 14.817277216097269 8.583957869535878
    vertex -20.14134818131268 14.817277216097269 8.778072153362764
  endloop
endfacet
facet normal 0.0 1.0 0.0
  outer loop
    vertex -20.14134818131268 14.817277216097269 8.778072153362764
    vertex -26.666903811595905 14.817277216097269 8.583957869535878
    vertex -26.6924594418791 14.817277216097269 8.778072153362766
  endloop
endfacet
facet normal 0.0 1.0 0.0
  outer loop
    vertex -20.14134818131268 14.817277216097269 8.778072153362764
    vertex -26.6924594418791 14.817277216097269 8.778072153362766
    vertex -20.066422864434205 14.817277216097269 8.958957869535874
  endloop
endfacet
facet normal 0.0 1.0 0.0
  outer loop
    vertex -20.066422864434205 14.817277216097269 8.958957869535874
    vertex -26.6924594418791 14.817277216097269 8.778072153362766
    vertex -26.76738475875758 14.817277216097269 8.958957869535876
  endloop
endfacet
facet normal 0.0 1.0 0.0
  outer loop
    vertex -20.066422864434205 14.817277216097269 8.958957869535874
    vertex -26.76738475875758 14.817277216097269 8.958957869535876
    vertex -19.94723389748579 14.817277216097269 9.114287955425786
  endloop
endfacet
facet normal 0.0 1.0 0.0
  outer loop
    vertex -19.94723389748579 14.817277216097269 9.114287955425786
    vertex -26.76738475875758 14.817277216097269 8.958957869535876
    vertex -26.886573725705993 14.817277216097269 9.114287955425786
  endloop
endfacet
facet normal 0.0 1.0 0.0
  outer loop
    vertex -19.94723389748579 14.817277216097269 9.114287955425786
    vertex -26.886573725705993 14.817277216097269 9.114287955425786
    vertex -19.791903811595883 14.817277216097269 9.233476922374201
  endloop
endfacet
facet normal 0.0 1.0 0.0
  outer loop
    vertex -19.791903811595883 14.817277216097269 9.233476922374201
    vertex -26.886573725705993 14.817277216097269 9.114287955425786
    vertex -27.041903811595905 14.817277216097269 9.233476922374205
  endloop
endfacet
facet normal 0.0 1.0 0.0
  outer loop
    vertex -19.791903811595883 14.817277216097269 9.233476922374201
    vertex -27.041903811595905 14.817277216097269 9.233476922374205
    vertex -19.611018095422768 14.817277216097269 9.308402239252676
  endloop
endfacet
facet normal 0.0 1.0 0.0
  outer loop
    vertex -19.611018095422768 14.817277216097269 9.308402239252676
    vertex -27.041903811595905 14.817277216097269 9.233476922374205
    vertex -27.222789527769017 14.817277216097269 9.308402239252677
  endloop
endfacet
facet normal 0.0 1.0 0.0
  outer loop
    vertex -19.611018095422768 14.817277216097269 9.308402239252676
    vertex -27.222789527769017 14.817277216097269 9.308402239252677
    vertex -19.41690381159588 14.817277216097269 9.333957869535874
  endloop
endfacet
facet normal 0.0 1.0 0.0
  outer loop
    vertex -19.41690381159588 14.817277216097269 9.333957869535874
    vertex -27.222789527769017 14.817277216097269 9.308402239252677
    vertex -27.416903811595905 14.817277216097269 9.333957869535876
  endloop
endfacet
facet normal 0.0 1.0 0.0
  outer loop
    vertex -30.416903811595905 14.817277216097269 7.083957869535877
    vertex -27.416903811595905 14.817277216097269 7.833957869535879
    vertex -19.41690381159588 14.817277216097269 7.833957869535874
  endloop
endfacet
facet normal 0.0 1.0 0.0
  outer loop
    vertex -27.416903811595905 14.817277216097269 7.833957869535879
    vertex -30.416903811595905 14.817277216097269 7.083957869535877
    vertex -27.611018095422793 14.817277216097269 7.859513499819077
  endloop
endfacet
facet normal 0.0 1.0 0.0
  outer loop
    vertex -27.611018095422793 14.817277216097269 7.859513499819077
    vertex -30.416903811595905 14.817277216097269 7.083957869535877
    vertex -27.791903811595905 14.817277216097269 7.934438816697549
  endloop
endfacet
facet normal 0.0 1.0 0.0
  outer loop
    vertex -27.791903811595905 14.817277216097269 7.934438816697549
    vertex -30.416903811595905 14.817277216097269 7.083957869535877
    vertex -27.947233897485816 14.817277216097269 8.053627783645968
  endloop
endfacet
facet normal 0.0 1.0 0.0
  outer loop
    vertex -27.947233897485816 14.817277216097269 8.053627783645968
    vertex -30.416903811595905 14.817277216097269 7.083957869535877
    vertex -28.06642286443423 14.817277216097269 8.208957869535878
  endloop
endfacet
facet normal 0.0 1.0 0.0
  outer loop
    vertex -28.06642286443423 14.817277216097269 8.208957869535878
    vertex -30.416903811595905 14.817277216097269 7.083957869535877
    vertex -28.141348181312704 14.817277216097269 8.389843585708988
  endloop
endfacet
facet normal 0.0 1.0 0.0
  outer loop
    vertex -28.141348181312704 14.817277216097269 8.389843585708988
    vertex -30.416903811595905 14.817277216097269 7.083957869535877
    vertex -30.416903811595905 14.817277216097269 18.083957869535876
  endloop
endfacet
facet normal 0.0 1.0 0.0
  outer loop
    vertex -28.141348181312704 14.817277216097269 8.389843585708988
    vertex -30.416903811595905 14.817277216097269 18.083957869535876
    vertex -28.1669038115959 14.817277216097269 8.583957869535878
  endloop
endfacet
facet normal 0.0 1.0 0.0
  outer loop
    vertex -28.1669038115959 14.817277216097269 8.583957869535878
    vertex -30.416903811595905 14.817277216097269 18.083957869535876
    vertex -28.141348181312704 14.817277216097269 8.778072153362768
  endloop
endfacet
facet normal 0.0 1.0 0.0
  outer loop
    vertex -28.141348181312704 14.817277216097269 8.778072153362768
    vertex -30.416903811595905 14.817277216097269 18.083957869535876
    vertex -28.06642286443423 14.817277216097269 8.958957869535876
  endloop
endfacet
facet normal 0.0 1.0 0.0
  outer loop
    vertex -28.06642286443423 14.817277216097269 8.958957869535876
    vertex -30.416903811595905 14.817277216097269 18.083957869535876
    vertex -27.947233897485816 14.817277216097269 9.114287955425786
  endloop
endfacet
facet normal 0.0 1.0 0.0
  outer loop
    vertex -27.947233897485816 14.817277216097269 9.114287955425786
    vertex -30.416903811595905 14.817277216097269 18.083957869535876
    vertex -27.791903811595905 14.817277216097269 9.233476922374205
  endloop
endfacet
facet normal 0.0 1.0 0.0
  outer loop
    vertex -27.791903811595905 14.817277216097269 9.233476922374205
    vertex -30.416903811595905 14.817277216097269 18.083957869535876
    vertex -27.611018095422793 14.817277216097269 9.308402239252677
  endloop
endfacet
facet normal 0.0 1.0 0.0
  outer loop
    vertex -27.611018095422793 14.817277216097269 9.308402239252677
    vertex -30.416903811595905 14.817277216097269 18.083957869535876
    vertex -27.416903811595905 14.817277216097269 9.333957869535876
  endloop
endfacet
facet normal 0.0 1.0 0.0
  outer loop
    vertex -27.416903811595905 14.817277216097269 9.333957869535876
    vertex -30.416903811595905 14.817277216097269 18.083957869535876
    vertex -16.416903811595883 14.817277216097269 18.083957869535876
  endloop
endfacet
facet normal 0.0 1.0 0.0
  outer loop
    vertex -16.416903811595883 14.817277216097269 7.083957869535874
    vertex -18.692459441879077 14.817277216097269 8.389843585708983
    vertex -16.416903811595883 14.817277216097269 18.083957869535876
  endloop
endfacet
facet normal 0.0 1.0 0.0
  outer loop
    vertex -18.692459441879077 14.817277216097269 8.389843585708983
    vertex -16.416903811595883 14.817277216097269 7.083957869535874
    vertex -18.767384758757554 14.817277216097269 8.208957869535874
  endloop
endfacet
facet normal 0.0 1.0 0.0
  outer loop
    vertex -18.767384758757554 14.817277216097269 8.208957869535874
    vertex -16.416903811595883 14.817277216097269 7.083957869535874
    vertex -18.88657372570597 14.817277216097269 8.053627783645963
  endloop
endfacet
facet normal 0.0 1.0 0.0
  outer loop
    vertex -18.88657372570597 14.817277216097269 8.053627783645963
    vertex -16.416903811595883 14.817277216097269 7.083957869535874
    vertex -19.041903811595876 14.817277216097269 7.934438816697545
  endloop
endfacet
facet normal 0.0 1.0 0.0
  outer loop
    vertex -19.041903811595876 14.817277216097269 7.934438816697545
    vertex -16.416903811595883 14.817277216097269 7.083957869535874
    vertex -19.22278952776899 14.817277216097269 7.859513499819073
  endloop
endfacet
facet normal 0.0 1.0 0.0
  outer loop
    vertex -19.22278952776899 14.817277216097269 7.859513499819073
    vertex -16.416903811595883 14.817277216097269 7.083957869535874
    vertex -19.41690381159588 14.817277216097269 7.833957869535874
  endloop
endfacet
facet normal 0.0 1.0 0.0
  outer loop
    vertex -19.41690381159588 14.817277216097269 7.833957869535874
    vertex -16.416903811595883 14.817277216097269 7.083957869535874
    vertex -30.416903811595905 14.817277216097269 7.083957869535877
  endloop
endfacet
facet normal 0.0 1.0 0.0
  outer loop
    vertex -16.416903811595883 14.817277216097269 18.083957869535876
    vertex -18.692459441879077 14.817277216097269 8.389843585708983
    vertex -18.66690381159588 14.817277216097269 8.583957869535874
  endloop
endfacet
facet normal 0.0 1.0 0.0
  outer loop
    vertex -16.416903811595883 14.817277216097269 18.083957869535876
    vertex -18.66690381159588 14.817277216097269 8.583957869535874
    vertex -18.692459441879077 14.817277216097269 8.778072153362764
  endloop
endfacet
facet normal 0.0 1.0 0.0
  outer loop
    vertex -16.416903811595883 14.817277216097269 18.083957869535876
    vertex -18.692459441879077 14.817277216097269 8.778072153362764
    vertex -18.767384758757554 14.817277216097269 8.958957869535874
  endloop
endfacet
facet normal 0.0 1.0 0.0
  outer loop
    vertex -16.416903811595883 14.817277216097269 18.083957869535876
    vertex -18.767384758757554 14.817277216097269 8.958957869535874
    vertex -18.88657372570597 14.817277216097269 9.114287955425786
  endloop
endfacet
facet normal 0.0 1.0 0.0
  outer loop
    vertex -16.416903811595883 14.817277216097269 18.083957869535876
    vertex -18.88657372570597 14.817277216097269 9.114287955425786
    vertex -19.041903811595876 14.817277216097269 9.233476922374201
  endloop
endfacet
facet normal 0.0 1.0 0.0
  outer loop
    vertex -16.416903811595883 14.817277216097269 18.083957869535876
    vertex -19.041903811595876 14.817277216097269 9.233476922374201
    vertex -19.22278952776899 14.817277216097269 9.308402239252676
  endloop
endfacet
facet normal 0.0 1.0 0.0
  outer loop
    vertex -16.416903811595883 14.817277216097269 18.083957869535876
    vertex -19.22278952776899 14.817277216097269 9.308402239252676
    vertex -19.41690381159588 14.817277216097269 9.333957869535874
  endloop
endfacet
facet normal 0.0 1.0 0.0
  outer loop
    vertex -16.416903811595883 14.817277216097269 18.083957869535876
    vertex -19.41690381159588 14.817277216097269 9.333957869535874
    vertex -27.416903811595905 14.817277216097269 9.333957869535876
  endloop
endfacet
endsolid Complete Setup
