solid Complete Setup
facet normal 1.124100812432971e-15 -1.0 2.7755575615628914e-16
  outer loop
    vertex -64.1413247606068 38.34445422854239 8.036205312098641
    vertex -61.0788247606068 38.344454228542396 11.098705312098646
    vertex -64.1413247606068 38.344454228542396 20.286205312098616
  endloop
endfacet
facet normal 1.124100812432971e-15 -1.0 2.7755575615628914e-16
  outer loop
    vertex -61.0788247606068 38.344454228542396 11.098705312098646
    vertex -64.1413247606068 38.34445422854239 8.036205312098641
    vertex -51.89132476060679 38.3444542285424 8.036205312098653
  endloop
endfacet
facet normal 1.124100812432971e-15 -1.0 2.7755575615628914e-16
  outer loop
    vertex -64.1413247606068 38.344454228542396 20.286205312098616
    vertex -61.0788247606068 38.344454228542396 11.098705312098646
    vertex -61.07882476060681 38.344454228542396 17.161205312098645
  endloop
endfacet
facet normal 1.124100812432971e-15 -1.0 2.7755575615628914e-16
  outer loop
    vertex -61.0788247606068 38.344454228542396 11.098705312098646
    vertex -51.89132476060679 38.3444542285424 8.036205312098653
    vertex -55.0788247606068 38.3444542285424 11.098705312098653
  endloop
endfacet
facet normal 1.124100812432971e-15 -1.0 2.7755575615628914e-16
  outer loop
    vertex -55.0788247606068 38.3444542285424 11.098705312098653
    vertex -51.89132476060679 38.3444542285424 8.036205312098653
    vertex -55.07882476060681 38.3444542285424 17.16120531209865
  endloop
endfacet
facet normal 1.124100812432971e-15 -1.0 2.7755575615628914e-16
  outer loop
    vertex -61.07882476060681 38.344454228542396 17.161205312098645
    vertex -51.8913247606068 38.34445422854241 20.28620531209863
    vertex -64.1413247606068 38.344454228542396 20.286205312098616
  endloop
endfacet
facet normal 1.124100812432971e-15 -1.0 2.7755575615628914e-16
  outer loop
    vertex -51.8913247606068 38.34445422854241 20.28620531209863
    vertex -61.07882476060681 38.344454228542396 17.161205312098645
    vertex -55.07882476060681 38.3444542285424 17.16120531209865
  endloop
endfacet
facet normal 1.124100812432971e-15 -1.0 2.7755575615628914e-16
  outer loop
    vertex -51.8913247606068 38.34445422854241 20.28620531209863
    vertex -55.07882476060681 38.3444542285424 17.16120531209865
    vertex -51.89132476060679 38.3444542285424 8.036205312098653
  endloop
endfacet
facet normal 9.159339953157555e-16 -2.775557561562881e-16 -1.0
  outer loop
    vertex -51.89132476060679 38.3444542285424 8.036205312098653
    vertex -64.1413247606068 41.34445422854239 8.03620531209864
    vertex -51.89132476060679 41.3444542285424 8.036205312098652
  endloop
endfacet
facet normal 9.159339953157555e-16 -2.775557561562881e-16 -1.0
  outer loop
    vertex -64.1413247606068 41.34445422854239 8.03620531209864
    vertex -51.89132476060679 38.3444542285424 8.036205312098653
    vertex -64.1413247606068 38.34445422854239 8.036205312098641
  endloop
endfacet
facet normal 1.0 1.1241008124329712e-15 9.159339953157551e-16
  outer loop
    vertex -51.891324760606814 41.34445422854241 20.28620531209863
    vertex -51.89132476060679 38.3444542285424 8.036205312098653
    vertex -51.89132476060679 41.3444542285424 8.036205312098652
  endloop
endfacet
facet normal 1.0 1.1241008124329712e-15 9.159339953157551e-16
  outer loop
    vertex -51.89132476060679 38.3444542285424 8.036205312098653
    vertex -51.891324760606814 41.34445422854241 20.28620531209863
    vertex -51.8913247606068 38.34445422854241 20.28620531209863
  endloop
endfacet
facet normal -9.159339953157555e-16 2.775557561562881e-16 1.0
  outer loop
    vertex -64.1413247606068 38.344454228542396 20.286205312098616
    vertex -51.891324760606814 41.34445422854241 20.28620531209863
    vertex -64.1413247606068 41.344454228542396 20.286205312098616
  endloop
endfacet
facet normal -9.159339953157555e-16 2.775557561562881e-16 1.0
  outer loop
    vertex -51.891324760606814 41.34445422854241 20.28620531209863
    vertex -64.1413247606068 38.344454228542396 20.286205312098616
    vertex -51.8913247606068 38.34445422854241 20.28620531209863
  endloop
endfacet
facet normal -1.0 -1.1241008124329712e-15 -9.159339953157551e-16
  outer loop
    vertex -64.1413247606068 38.344454228542396 20.286205312098616
    vertex -64.1413247606068 41.34445422854239 8.03620531209864
    vertex -64.1413247606068 38.34445422854239 8.036205312098641
  endloop
endfacet
facet normal -1.0 -1.1241008124329712e-15 -9.159339953157551e-16
  outer loop
    vertex -64.1413247606068 41.34445422854239 8.03620531209864
    vertex -64.1413247606068 38.344454228542396 20.286205312098616
    vertex -64.1413247606068 41.344454228542396 20.286205312098616
  endloop
endfacet
facet normal 1.124100812432971e-15 -1.0 2.7755575615628914e-16
  outer loop
    vertex -61.078824760606786 30.34445422854239 11.098705312098648
    vertex -60.976602239474 30.34445422854239 13.322248176791087
    vertex -61.0788247606068 30.34445422854239 14.098705312098648
  endloop
endfacet
facet normal 1.124100812432971e-15 -1.0 2.7755575615628914e-16
  outer loop
    vertex -60.976602239474 30.34445422854239 13.322248176791087
    vertex -61.078824760606786 30.34445422854239 11.098705312098648
    vertex -60.6769009719601 30.34445422854239 12.598705312098646
  endloop
endfacet
facet normal 1.124100812432971e-15 -1.0 2.7755575615628914e-16
  outer loop
    vertex -60.6769009719601 30.34445422854239 12.598705312098646
    vertex -61.078824760606786 30.34445422854239 11.098705312098648
    vertex -60.20014510416643 30.34445422854239 11.977384968539008
  endloop
endfacet
facet normal 1.124100812432971e-15 -1.0 2.7755575615628914e-16
  outer loop
    vertex -60.20014510416643 30.34445422854239 11.977384968539008
    vertex -61.078824760606786 30.34445422854239 11.098705312098648
    vertex -59.57882476060679 30.34445422854239 11.500629100745334
  endloop
endfacet
facet normal 1.124100812432971e-15 -1.0 2.7755575615628914e-16
  outer loop
    vertex -59.57882476060679 30.34445422854239 11.500629100745334
    vertex -61.078824760606786 30.34445422854239 11.098705312098648
    vertex -58.85528189591435 30.344454228542396 11.200927833231447
  endloop
endfacet
facet normal 1.124100812432971e-15 -1.0 2.7755575615628914e-16
  outer loop
    vertex -58.85528189591435 30.344454228542396 11.200927833231447
    vertex -61.078824760606786 30.34445422854239 11.098705312098648
    vertex -58.07882476060679 30.344454228542396 11.098705312098652
  endloop
endfacet
facet normal 1.0 1.1241008124329712e-15 9.159339953157551e-16
  outer loop
    vertex -55.07882476060681 38.3444542285424 17.16120531209865
    vertex -55.0788247606068 30.3444542285424 11.098705312098653
    vertex -55.0788247606068 38.3444542285424 11.098705312098653
  endloop
endfacet
facet normal 1.0 1.1241008124329712e-15 9.159339953157551e-16
  outer loop
    vertex -55.0788247606068 30.3444542285424 11.098705312098653
    vertex -55.07882476060681 38.3444542285424 17.16120531209865
    vertex -55.0788247606068 30.3444542285424 14.098705312098653
  endloop
endfacet
facet normal 1.0 1.1241008124329712e-15 9.159339953157551e-16
  outer loop
    vertex -55.0788247606068 30.3444542285424 14.098705312098653
    vertex -55.07882476060681 38.3444542285424 17.16120531209865
    vertex -55.0788247606068 30.3444542285424 17.16120531209865
  endloop
endfacet
facet normal -9.159339953157555e-16 2.775557561562881e-16 1.0
  outer loop
    vertex -61.0788247606068 30.34445422854239 17.161205312098645
    vertex -55.07882476060681 38.3444542285424 17.16120531209865
    vertex -61.07882476060681 38.344454228542396 17.161205312098645
  endloop
endfacet
facet normal -9.159339953157555e-16 2.775557561562881e-16 1.0
  outer loop
    vertex -55.07882476060681 38.3444542285424 17.16120531209865
    vertex -61.0788247606068 30.34445422854239 17.161205312098645
    vertex -55.0788247606068 30.3444542285424 17.16120531209865
  endloop
endfacet
facet normal 1.124100812432971e-15 -1.0 2.7755575615628914e-16
  outer loop
    vertex -61.0788247606068 30.34445422854239 17.161205312098645
    vertex -58.07882476060681 30.344454228542396 17.098705312098655
    vertex -55.0788247606068 30.3444542285424 17.16120531209865
  endloop
endfacet
facet normal 1.124100812432971e-15 -1.0 2.7755575615628914e-16
  outer loop
    vertex -58.07882476060681 30.344454228542396 17.098705312098655
    vertex -61.0788247606068 30.34445422854239 17.161205312098645
    vertex -58.85528189591436 30.344454228542396 16.996482790965857
  endloop
endfacet
facet normal 1.124100812432971e-15 -1.0 2.7755575615628914e-16
  outer loop
    vertex -58.85528189591436 30.344454228542396 16.996482790965857
    vertex -61.0788247606068 30.34445422854239 17.161205312098645
    vertex -59.5788247606068 30.344454228542396 16.696781523451968
  endloop
endfacet
facet normal 1.124100812432971e-15 -1.0 2.7755575615628914e-16
  outer loop
    vertex -59.5788247606068 30.344454228542396 16.696781523451968
    vertex -61.0788247606068 30.34445422854239 17.161205312098645
    vertex -60.20014510416644 30.344454228542396 16.220025655658294
  endloop
endfacet
facet normal 1.124100812432971e-15 -1.0 2.7755575615628914e-16
  outer loop
    vertex -60.20014510416644 30.344454228542396 16.220025655658294
    vertex -61.0788247606068 30.34445422854239 17.161205312098645
    vertex -60.676900971960116 30.34445422854239 15.598705312098646
  endloop
endfacet
facet normal 1.124100812432971e-15 -1.0 2.7755575615628914e-16
  outer loop
    vertex -60.676900971960116 30.34445422854239 15.598705312098646
    vertex -61.0788247606068 30.34445422854239 17.161205312098645
    vertex -60.976602239474 30.34445422854239 14.875162447406211
  endloop
endfacet
facet normal 1.124100812432971e-15 -1.0 2.7755575615628914e-16
  outer loop
    vertex -60.976602239474 30.34445422854239 14.875162447406211
    vertex -61.0788247606068 30.34445422854239 17.161205312098645
    vertex -61.0788247606068 30.34445422854239 14.129955312098646
  endloop
endfacet
facet normal 1.124100812432971e-15 -1.0 2.7755575615628914e-16
  outer loop
    vertex -55.0788247606068 30.3444542285424 17.16120531209865
    vertex -58.07882476060681 30.344454228542396 17.098705312098655
    vertex -57.30236762529923 30.344454228542396 16.99648279096586
  endloop
endfacet
facet normal 1.124100812432971e-15 -1.0 2.7755575615628914e-16
  outer loop
    vertex -55.0788247606068 30.3444542285424 17.16120531209865
    vertex -57.30236762529923 30.344454228542396 16.99648279096586
    vertex -56.57882476060679 30.3444542285424 16.69678152345197
  endloop
endfacet
facet normal 1.124100812432971e-15 -1.0 2.7755575615628914e-16
  outer loop
    vertex -55.0788247606068 30.3444542285424 17.16120531209865
    vertex -56.57882476060679 30.3444542285424 16.69678152345197
    vertex -55.957504417047154 30.3444542285424 16.220025655658297
  endloop
endfacet
facet normal 1.124100812432971e-15 -1.0 2.7755575615628914e-16
  outer loop
    vertex -55.0788247606068 30.3444542285424 17.16120531209865
    vertex -55.957504417047154 30.3444542285424 16.220025655658297
    vertex -55.480748549253484 30.3444542285424 15.598705312098657
  endloop
endfacet
facet normal 1.124100812432971e-15 -1.0 2.7755575615628914e-16
  outer loop
    vertex -55.0788247606068 30.3444542285424 17.16120531209865
    vertex -55.480748549253484 30.3444542285424 15.598705312098657
    vertex -55.18104728173959 30.3444542285424 14.875162447406217
  endloop
endfacet
facet normal 1.124100812432971e-15 -1.0 2.7755575615628914e-16
  outer loop
    vertex -55.0788247606068 30.3444542285424 17.16120531209865
    vertex -55.18104728173959 30.3444542285424 14.875162447406217
    vertex -55.0788247606068 30.3444542285424 14.098705312098653
  endloop
endfacet
facet normal 1.124100812432971e-15 -1.0 2.7755575615628914e-16
  outer loop
    vertex -55.0788247606068 30.3444542285424 11.098705312098653
    vertex -57.302367625299226 30.344454228542396 11.200927833231448
    vertex -58.07882476060679 30.344454228542396 11.098705312098652
  endloop
endfacet
facet normal 1.124100812432971e-15 -1.0 2.7755575615628914e-16
  outer loop
    vertex -57.302367625299226 30.344454228542396 11.200927833231448
    vertex -55.0788247606068 30.3444542285424 11.098705312098653
    vertex -56.57882476060679 30.344454228542396 11.500629100745337
  endloop
endfacet
facet normal 1.124100812432971e-15 -1.0 2.7755575615628914e-16
  outer loop
    vertex -56.57882476060679 30.344454228542396 11.500629100745337
    vertex -55.0788247606068 30.3444542285424 11.098705312098653
    vertex -55.957504417047154 30.344454228542396 11.977384968539011
  endloop
endfacet
facet normal 1.124100812432971e-15 -1.0 2.7755575615628914e-16
  outer loop
    vertex -55.957504417047154 30.344454228542396 11.977384968539011
    vertex -55.0788247606068 30.3444542285424 11.098705312098653
    vertex -55.480748549253484 30.3444542285424 12.598705312098652
  endloop
endfacet
facet normal 1.124100812432971e-15 -1.0 2.7755575615628914e-16
  outer loop
    vertex -55.480748549253484 30.3444542285424 12.598705312098652
    vertex -55.0788247606068 30.3444542285424 11.098705312098653
    vertex -55.18104728173959 30.3444542285424 13.322248176791092
  endloop
endfacet
facet normal 1.124100812432971e-15 -1.0 2.7755575615628914e-16
  outer loop
    vertex -55.18104728173959 30.3444542285424 13.322248176791092
    vertex -55.0788247606068 30.3444542285424 11.098705312098653
    vertex -55.0788247606068 30.3444542285424 14.098705312098653
  endloop
endfacet
facet normal -1.124100812432971e-15 1.0 -2.7755575615628914e-16
  outer loop
    vertex -51.891324760606814 41.34445422854241 20.28620531209863
    vertex -64.1413247606068 41.34445422854239 8.03620531209864
    vertex -64.1413247606068 41.344454228542396 20.286205312098616
  endloop
endfacet
facet normal -1.124100812432971e-15 1.0 -2.7755575615628914e-16
  outer loop
    vertex -64.1413247606068 41.34445422854239 8.03620531209864
    vertex -51.891324760606814 41.34445422854241 20.28620531209863
    vertex -51.89132476060679 41.3444542285424 8.036205312098652
  endloop
endfacet
facet normal -0.13052619222005019 -4.219058269042158e-16 -0.9914448613738106
  outer loop
    vertex -58.07882476060679 26.344454228542396 11.098705312098653
    vertex -58.85528189591435 30.344454228542396 11.200927833231447
    vertex -58.07882476060679 30.344454228542396 11.098705312098652
  endloop
endfacet
facet normal -0.13052619222005019 -4.219058269042158e-16 -0.9914448613738106
  outer loop
    vertex -58.85528189591435 30.344454228542396 11.200927833231447
    vertex -58.07882476060679 26.344454228542396 11.098705312098653
    vertex -58.85528189591435 26.344454228542396 11.200927833231448
  endloop
endfacet
facet normal 0.13052619222005254 -1.28456629467532e-16 -0.9914448613738104
  outer loop
    vertex -57.302367625299226 26.344454228542396 11.20092783323145
    vertex -58.07882476060679 30.344454228542396 11.098705312098652
    vertex -57.302367625299226 30.344454228542396 11.200927833231448
  endloop
endfacet
facet normal 0.13052619222005254 -1.28456629467532e-16 -0.9914448613738104
  outer loop
    vertex -58.07882476060679 30.344454228542396 11.098705312098652
    vertex -57.302367625299226 26.344454228542396 11.20092783323145
    vertex -58.07882476060679 26.344454228542396 11.098705312098653
  endloop
endfacet
facet normal 0.3826834323650907 1.7040066386232795e-16 -0.9238795325112864
  outer loop
    vertex -56.578824760606786 26.344454228542396 11.500629100745337
    vertex -57.302367625299226 30.344454228542396 11.200927833231448
    vertex -56.57882476060679 30.344454228542396 11.500629100745337
  endloop
endfacet
facet normal 0.3826834323650907 1.7040066386232795e-16 -0.9238795325112864
  outer loop
    vertex -57.302367625299226 30.344454228542396 11.200927833231448
    vertex -56.578824760606786 26.344454228542396 11.500629100745337
    vertex -57.302367625299226 26.344454228542396 11.20092783323145
  endloop
endfacet
facet normal 0.608761429008722 4.641094306629093e-16 -0.7933533402912342
  outer loop
    vertex -55.95750441704715 26.344454228542396 11.977384968539013
    vertex -56.57882476060679 30.344454228542396 11.500629100745337
    vertex -55.957504417047154 30.344454228542396 11.977384968539011
  endloop
endfacet
facet normal 0.608761429008722 4.641094306629093e-16 -0.7933533402912342
  outer loop
    vertex -56.57882476060679 30.344454228542396 11.500629100745337
    vertex -55.95750441704715 26.344454228542396 11.977384968539013
    vertex -56.578824760606786 26.344454228542396 11.500629100745337
  endloop
endfacet
facet normal 0.793353340291236 7.228438956204916e-16 -0.6087614290087194
  outer loop
    vertex -55.480748549253484 30.3444542285424 12.598705312098652
    vertex -55.95750441704715 26.344454228542396 11.977384968539013
    vertex -55.957504417047154 30.344454228542396 11.977384968539011
  endloop
endfacet
facet normal 0.793353340291236 7.228438956204916e-16 -0.6087614290087194
  outer loop
    vertex -55.95750441704715 26.344454228542396 11.977384968539013
    vertex -55.480748549253484 30.3444542285424 12.598705312098652
    vertex -55.48074854925347 26.344454228542396 12.598705312098653
  endloop
endfacet
facet normal 0.9238795325112871 9.356637547679743e-16 -0.3826834323650891
  outer loop
    vertex -55.18104728173959 30.3444542285424 13.322248176791092
    vertex -55.48074854925347 26.344454228542396 12.598705312098653
    vertex -55.480748549253484 30.3444542285424 12.598705312098652
  endloop
endfacet
facet normal 0.9238795325112871 9.356637547679743e-16 -0.3826834323650891
  outer loop
    vertex -55.48074854925347 26.344454228542396 12.598705312098653
    vertex -55.18104728173959 30.3444542285424 13.322248176791092
    vertex -55.18104728173959 26.344454228542396 13.322248176791094
  endloop
endfacet
facet normal 0.9914448613738106 1.0782556781729574e-15 -0.13052619222005085
  outer loop
    vertex -55.0788247606068 30.3444542285424 14.098705312098653
    vertex -55.18104728173959 26.344454228542396 13.322248176791094
    vertex -55.18104728173959 30.3444542285424 13.322248176791092
  endloop
endfacet
facet normal 0.9914448613738106 1.0782556781729574e-15 -0.13052619222005085
  outer loop
    vertex -55.18104728173959 26.344454228542396 13.322248176791094
    vertex -55.0788247606068 30.3444542285424 14.098705312098653
    vertex -55.078824760606786 26.344454228542396 14.098705312098657
  endloop
endfacet
facet normal 0.9914448613738104 1.1507122701326325e-15 0.1305261922200526
  outer loop
    vertex -55.18104728173959 30.3444542285424 14.875162447406217
    vertex -55.078824760606786 26.344454228542396 14.098705312098657
    vertex -55.0788247606068 30.3444542285424 14.098705312098653
  endloop
endfacet
facet normal 0.9914448613738104 1.1507122701326325e-15 0.1305261922200526
  outer loop
    vertex -55.078824760606786 26.344454228542396 14.098705312098657
    vertex -55.18104728173959 30.3444542285424 14.875162447406217
    vertex -55.18104728173959 26.344454228542396 14.875162447406217
  endloop
endfacet
facet normal 0.9238795325112864 1.1427302261680157e-15 0.38268343236509067
  outer loop
    vertex -55.480748549253484 30.3444542285424 15.598705312098657
    vertex -55.18104728173959 26.344454228542396 14.875162447406217
    vertex -55.18104728173959 30.3444542285424 14.875162447406217
  endloop
endfacet
facet normal 0.9238795325112864 1.1427302261680157e-15 0.38268343236509067
  outer loop
    vertex -55.18104728173959 26.344454228542396 14.875162447406217
    vertex -55.480748549253484 30.3444542285424 15.598705312098657
    vertex -55.480748549253484 26.344454228542396 15.598705312098657
  endloop
endfacet
facet normal 0.7933533402912346 1.0607743731150866e-15 0.6087614290087214
  outer loop
    vertex -55.957504417047154 30.3444542285424 16.220025655658297
    vertex -55.480748549253484 26.344454228542396 15.598705312098657
    vertex -55.480748549253484 30.3444542285424 15.598705312098657
  endloop
endfacet
facet normal 0.7933533402912346 1.0607743731150866e-15 0.6087614290087214
  outer loop
    vertex -55.480748549253484 26.344454228542396 15.598705312098657
    vertex -55.957504417047154 30.3444542285424 16.220025655658297
    vertex -55.95750441704715 26.344454228542396 16.220025655658297
  endloop
endfacet
facet normal 0.6087614290087197 9.045090031902105e-16 0.7933533402912362
  outer loop
    vertex -56.57882476060679 26.344454228542396 16.69678152345197
    vertex -55.957504417047154 30.3444542285424 16.220025655658297
    vertex -56.57882476060679 30.3444542285424 16.69678152345197
  endloop
endfacet
facet normal 0.6087614290087197 9.045090031902105e-16 0.7933533402912362
  outer loop
    vertex -55.957504417047154 30.3444542285424 16.220025655658297
    vertex -56.57882476060679 26.344454228542396 16.69678152345197
    vertex -55.95750441704715 26.344454228542396 16.220025655658297
  endloop
endfacet
facet normal 0.382683432365089 6.866028394697236e-16 0.9238795325112871
  outer loop
    vertex -57.30236762529923 26.344454228542396 16.99648279096586
    vertex -56.57882476060679 30.3444542285424 16.69678152345197
    vertex -57.30236762529923 30.344454228542396 16.99648279096586
  endloop
endfacet
facet normal 0.382683432365089 6.866028394697236e-16 0.9238795325112871
  outer loop
    vertex -56.57882476060679 30.3444542285424 16.69678152345197
    vertex -57.30236762529923 26.344454228542396 16.99648279096586
    vertex -56.57882476060679 26.344454228542396 16.69678152345197
  endloop
endfacet
facet normal 0.13052619222005085 4.219058269042166e-16 0.9914448613738106
  outer loop
    vertex -58.07882476060679 26.344454228542396 17.098705312098655
    vertex -57.30236762529923 30.344454228542396 16.99648279096586
    vertex -58.07882476060681 30.344454228542396 17.098705312098655
  endloop
endfacet
facet normal 0.13052619222005085 4.219058269042166e-16 0.9914448613738106
  outer loop
    vertex -57.30236762529923 30.344454228542396 16.99648279096586
    vertex -58.07882476060679 26.344454228542396 17.098705312098655
    vertex -57.30236762529923 26.344454228542396 16.99648279096586
  endloop
endfacet
facet normal -0.13052619222005227 1.2845662946753234e-16 0.9914448613738104
  outer loop
    vertex -58.85528189591436 26.344454228542396 16.996482790965857
    vertex -58.07882476060681 30.344454228542396 17.098705312098655
    vertex -58.85528189591436 30.344454228542396 16.996482790965857
  endloop
endfacet
facet normal -0.13052619222005227 1.2845662946753234e-16 0.9914448613738104
  outer loop
    vertex -58.07882476060681 30.344454228542396 17.098705312098655
    vertex -58.85528189591436 26.344454228542396 16.996482790965857
    vertex -58.07882476060679 26.344454228542396 17.098705312098655
  endloop
endfacet
facet normal -0.38268343236509167 -1.6838116750563722e-16 0.923879532511286
  outer loop
    vertex -59.57882476060679 26.344454228542396 16.696781523451968
    vertex -58.85528189591436 30.344454228542396 16.996482790965857
    vertex -59.5788247606068 30.344454228542396 16.696781523451968
  endloop
endfacet
facet normal -0.38268343236509167 -1.6838116750563722e-16 0.923879532511286
  outer loop
    vertex -58.85528189591436 30.344454228542396 16.996482790965857
    vertex -59.57882476060679 26.344454228542396 16.696781523451968
    vertex -58.85528189591436 26.344454228542396 16.996482790965857
  endloop
endfacet
facet normal -0.7933533402912365 -7.228438956204922e-16 0.6087614290087192
  outer loop
    vertex -60.20014510416644 26.344454228542396 16.220025655658294
    vertex -60.676900971960116 30.34445422854239 15.598705312098646
    vertex -60.6769009719601 26.344454228542396 15.598705312098646
  endloop
endfacet
facet normal -0.7933533402912365 -7.228438956204922e-16 0.6087614290087192
  outer loop
    vertex -60.676900971960116 30.34445422854239 15.598705312098646
    vertex -60.20014510416644 26.344454228542396 16.220025655658294
    vertex -60.20014510416644 30.344454228542396 16.220025655658294
  endloop
endfacet
facet normal -0.9238795325112871 -9.323177436475547e-16 0.38268343236508884
  outer loop
    vertex -60.6769009719601 26.344454228542396 15.598705312098646
    vertex -60.976602239474 30.34445422854239 14.875162447406211
    vertex -60.976602239474 26.344454228542396 14.875162447406211
  endloop
endfacet
facet normal -0.9238795325112871 -9.323177436475547e-16 0.38268343236508884
  outer loop
    vertex -60.976602239474 30.34445422854239 14.875162447406211
    vertex -60.6769009719601 26.344454228542396 15.598705312098646
    vertex -60.676900971960116 30.34445422854239 15.598705312098646
  endloop
endfacet
facet normal -0.9907224677503602 -1.0759519178860783e-15 0.13590066922070868
  outer loop
    vertex -60.976602239474 26.344454228542396 14.875162447406211
    vertex -61.0788247606068 30.34445422854239 14.129955312098646
    vertex -61.078824760606786 26.344454228542396 14.12995531209865
  endloop
endfacet
facet normal -0.9907224677503602 -1.0759519178860783e-15 0.13590066922070868
  outer loop
    vertex -61.0788247606068 30.34445422854239 14.129955312098646
    vertex -60.976602239474 26.344454228542396 14.875162447406211
    vertex -60.976602239474 30.34445422854239 14.875162447406211
  endloop
endfacet
facet normal -0.9914448613738104 -1.1507122701326325e-15 -0.13052619222005288
  outer loop
    vertex -61.078824760606786 26.344454228542396 14.098705312098652
    vertex -60.976602239474 30.34445422854239 13.322248176791087
    vertex -60.976602239474 26.344454228542396 13.322248176791089
  endloop
endfacet
facet normal -0.9914448613738104 -1.1507122701326325e-15 -0.13052619222005288
  outer loop
    vertex -60.976602239474 30.34445422854239 13.322248176791087
    vertex -61.078824760606786 26.344454228542396 14.098705312098652
    vertex -61.0788247606068 30.34445422854239 14.098705312098648
  endloop
endfacet
facet normal -0.9238795325112862 -1.1414037114042877e-15 -0.3826834323650913
  outer loop
    vertex -60.976602239474 26.344454228542396 13.322248176791089
    vertex -60.6769009719601 30.34445422854239 12.598705312098646
    vertex -60.6769009719601 26.344454228542396 12.598705312098648
  endloop
endfacet
facet normal -0.9238795325112862 -1.1414037114042877e-15 -0.3826834323650913
  outer loop
    vertex -60.6769009719601 30.34445422854239 12.598705312098646
    vertex -60.976602239474 26.344454228542396 13.322248176791089
    vertex -60.976602239474 30.34445422854239 13.322248176791087
  endloop
endfacet
facet normal -0.7933533402912343 -1.0607743731150866e-15 -0.6087614290087219
  outer loop
    vertex -60.6769009719601 26.344454228542396 12.598705312098648
    vertex -60.20014510416643 30.34445422854239 11.977384968539008
    vertex -60.20014510416643 26.344454228542396 11.97738496853901
  endloop
endfacet
facet normal -0.7933533402912343 -1.0607743731150866e-15 -0.6087614290087219
  outer loop
    vertex -60.20014510416643 30.34445422854239 11.977384968539008
    vertex -60.6769009719601 26.344454228542396 12.598705312098648
    vertex -60.6769009719601 30.34445422854239 12.598705312098646
  endloop
endfacet
facet normal -0.6087614290087194 -9.045090031902099e-16 -0.7933533402912363
  outer loop
    vertex -59.57882476060679 26.344454228542396 11.500629100745334
    vertex -60.20014510416643 30.34445422854239 11.977384968539008
    vertex -59.57882476060679 30.34445422854239 11.500629100745334
  endloop
endfacet
facet normal -0.6087614290087194 -9.045090031902099e-16 -0.7933533402912363
  outer loop
    vertex -60.20014510416643 30.34445422854239 11.977384968539008
    vertex -59.57882476060679 26.344454228542396 11.500629100745334
    vertex -60.20014510416643 26.344454228542396 11.97738496853901
  endloop
endfacet
facet normal -0.382683432365089 -6.866028394697236e-16 -0.9238795325112871
  outer loop
    vertex -58.85528189591435 26.344454228542396 11.200927833231448
    vertex -59.57882476060679 30.34445422854239 11.500629100745334
    vertex -58.85528189591435 30.344454228542396 11.200927833231447
  endloop
endfacet
facet normal -0.382683432365089 -6.866028394697236e-16 -0.9238795325112871
  outer loop
    vertex -59.57882476060679 30.34445422854239 11.500629100745334
    vertex -58.85528189591435 26.344454228542396 11.200927833231448
    vertex -59.57882476060679 26.344454228542396 11.500629100745334
  endloop
endfacet
facet normal -1.124100812432971e-15 1.0 -2.7755575615628914e-16
  outer loop
    vertex -57.302367625299226 26.344454228542396 11.20092783323145
    vertex -55.078824760606786 26.344454228542396 11.098705312098655
    vertex -58.07882476060679 26.344454228542396 11.098705312098653
  endloop
endfacet
facet normal -1.124100812432971e-15 1.0 -2.7755575615628914e-16
  outer loop
    vertex -55.078824760606786 26.344454228542396 11.098705312098655
    vertex -57.302367625299226 26.344454228542396 11.20092783323145
    vertex -56.578824760606786 26.344454228542396 11.500629100745337
  endloop
endfacet
facet normal -1.124100812432971e-15 1.0 -2.7755575615628914e-16
  outer loop
    vertex -55.078824760606786 26.344454228542396 11.098705312098655
    vertex -56.578824760606786 26.344454228542396 11.500629100745337
    vertex -55.95750441704715 26.344454228542396 11.977384968539013
  endloop
endfacet
facet normal -1.124100812432971e-15 1.0 -2.7755575615628914e-16
  outer loop
    vertex -55.078824760606786 26.344454228542396 11.098705312098655
    vertex -55.95750441704715 26.344454228542396 11.977384968539013
    vertex -55.48074854925347 26.344454228542396 12.598705312098653
  endloop
endfacet
facet normal -1.124100812432971e-15 1.0 -2.7755575615628914e-16
  outer loop
    vertex -55.078824760606786 26.344454228542396 11.098705312098655
    vertex -55.48074854925347 26.344454228542396 12.598705312098653
    vertex -55.18104728173959 26.344454228542396 13.322248176791094
  endloop
endfacet
facet normal -1.124100812432971e-15 1.0 -2.7755575615628914e-16
  outer loop
    vertex -55.078824760606786 26.344454228542396 11.098705312098655
    vertex -55.18104728173959 26.344454228542396 13.322248176791094
    vertex -55.078824760606786 26.344454228542396 14.098705312098657
  endloop
endfacet
facet normal -1.124100812432971e-15 1.0 -2.7755575615628914e-16
  outer loop
    vertex -61.0788247606068 26.344454228542396 17.161205312098645
    vertex -60.976602239474 26.344454228542396 14.875162447406211
    vertex -61.078824760606786 26.344454228542396 14.12995531209865
  endloop
endfacet
facet normal -1.124100812432971e-15 1.0 -2.7755575615628914e-16
  outer loop
    vertex -60.976602239474 26.344454228542396 14.875162447406211
    vertex -61.0788247606068 26.344454228542396 17.161205312098645
    vertex -60.6769009719601 26.344454228542396 15.598705312098646
  endloop
endfacet
facet normal -1.124100812432971e-15 1.0 -2.7755575615628914e-16
  outer loop
    vertex -60.6769009719601 26.344454228542396 15.598705312098646
    vertex -61.0788247606068 26.344454228542396 17.161205312098645
    vertex -60.20014510416644 26.344454228542396 16.220025655658294
  endloop
endfacet
facet normal -1.124100812432971e-15 1.0 -2.7755575615628914e-16
  outer loop
    vertex -60.20014510416644 26.344454228542396 16.220025655658294
    vertex -61.0788247606068 26.344454228542396 17.161205312098645
    vertex -59.57882476060679 26.344454228542396 16.696781523451968
  endloop
endfacet
facet normal -1.124100812432971e-15 1.0 -2.7755575615628914e-16
  outer loop
    vertex -59.57882476060679 26.344454228542396 16.696781523451968
    vertex -61.0788247606068 26.344454228542396 17.161205312098645
    vertex -58.85528189591436 26.344454228542396 16.996482790965857
  endloop
endfacet
facet normal -1.124100812432971e-15 1.0 -2.7755575615628914e-16
  outer loop
    vertex -58.85528189591436 26.344454228542396 16.996482790965857
    vertex -61.0788247606068 26.344454228542396 17.161205312098645
    vertex -58.07882476060679 26.344454228542396 17.098705312098655
  endloop
endfacet
facet normal -1.124100812432971e-15 1.0 -2.7755575615628914e-16
  outer loop
    vertex -58.07882476060679 26.344454228542396 17.098705312098655
    vertex -61.0788247606068 26.344454228542396 17.161205312098645
    vertex -55.078824760606786 26.344454228542403 17.16120531209865
  endloop
endfacet
facet normal -1.124100812432971e-15 1.0 -2.7755575615628914e-16
  outer loop
    vertex -60.20014510416644 26.344454228542396 16.220025655658294
    vertex -59.57882476060679 26.344454228542396 16.696781523451968
    vertex -60.17013679179099 26.344454228542396 16.243051843607677
  endloop
endfacet
facet normal -1.124100812432971e-15 1.0 -2.7755575615628914e-16
  outer loop
    vertex -58.07882476060679 26.344454228542396 17.098705312098655
    vertex -55.078824760606786 26.344454228542403 17.16120531209865
    vertex -57.30236762529923 26.344454228542396 16.99648279096586
  endloop
endfacet
facet normal -1.124100812432971e-15 1.0 -2.7755575615628914e-16
  outer loop
    vertex -57.30236762529923 26.344454228542396 16.99648279096586
    vertex -55.078824760606786 26.344454228542403 17.16120531209865
    vertex -56.57882476060679 26.344454228542396 16.69678152345197
  endloop
endfacet
facet normal -1.124100812432971e-15 1.0 -2.7755575615628914e-16
  outer loop
    vertex -56.57882476060679 26.344454228542396 16.69678152345197
    vertex -55.078824760606786 26.344454228542403 17.16120531209865
    vertex -55.95750441704715 26.344454228542396 16.220025655658297
  endloop
endfacet
facet normal -1.124100812432971e-15 1.0 -2.7755575615628914e-16
  outer loop
    vertex -55.95750441704715 26.344454228542396 16.220025655658297
    vertex -55.078824760606786 26.344454228542403 17.16120531209865
    vertex -55.480748549253484 26.344454228542396 15.598705312098657
  endloop
endfacet
facet normal -1.124100812432971e-15 1.0 -2.7755575615628914e-16
  outer loop
    vertex -55.480748549253484 26.344454228542396 15.598705312098657
    vertex -55.078824760606786 26.344454228542403 17.16120531209865
    vertex -55.18104728173959 26.344454228542396 14.875162447406217
  endloop
endfacet
facet normal -1.124100812432971e-15 1.0 -2.7755575615628914e-16
  outer loop
    vertex -55.18104728173959 26.344454228542396 14.875162447406217
    vertex -55.078824760606786 26.344454228542403 17.16120531209865
    vertex -55.078824760606786 26.344454228542396 14.098705312098657
  endloop
endfacet
facet normal -1.124100812432971e-15 1.0 -2.7755575615628914e-16
  outer loop
    vertex -61.078824760606786 26.344454228542393 11.09870531209865
    vertex -58.85528189591435 26.344454228542396 11.200927833231448
    vertex -58.07882476060679 26.344454228542396 11.098705312098653
  endloop
endfacet
facet normal -1.124100812432971e-15 1.0 -2.7755575615628914e-16
  outer loop
    vertex -58.85528189591435 26.344454228542396 11.200927833231448
    vertex -61.078824760606786 26.344454228542393 11.09870531209865
    vertex -59.57882476060679 26.344454228542396 11.500629100745334
  endloop
endfacet
facet normal -1.124100812432971e-15 1.0 -2.7755575615628914e-16
  outer loop
    vertex -59.57882476060679 26.344454228542396 11.500629100745334
    vertex -61.078824760606786 26.344454228542393 11.09870531209865
    vertex -60.20014510416643 26.344454228542396 11.97738496853901
  endloop
endfacet
facet normal -1.124100812432971e-15 1.0 -2.7755575615628914e-16
  outer loop
    vertex -60.20014510416643 26.344454228542396 11.97738496853901
    vertex -61.078824760606786 26.344454228542393 11.09870531209865
    vertex -60.6769009719601 26.344454228542396 12.598705312098648
  endloop
endfacet
facet normal -1.124100812432971e-15 1.0 -2.7755575615628914e-16
  outer loop
    vertex -60.6769009719601 26.344454228542396 12.598705312098648
    vertex -61.078824760606786 26.344454228542393 11.09870531209865
    vertex -60.976602239474 26.344454228542396 13.322248176791089
  endloop
endfacet
facet normal -1.124100812432971e-15 1.0 -2.7755575615628914e-16
  outer loop
    vertex -60.976602239474 26.344454228542396 13.322248176791089
    vertex -61.078824760606786 26.344454228542393 11.09870531209865
    vertex -61.078824760606786 26.344454228542396 14.098705312098652
  endloop
endfacet
facet normal 9.159339953157555e-16 -2.775557561562881e-16 -1.0
  outer loop
    vertex -55.078824760606786 24.344454228542403 11.098705312098657
    vertex -58.07882476060679 26.344454228542396 11.098705312098653
    vertex -55.078824760606786 26.344454228542396 11.098705312098655
  endloop
endfacet
facet normal 9.159339953157555e-16 -2.775557561562881e-16 -1.0
  outer loop
    vertex -58.07882476060679 26.344454228542396 11.098705312098653
    vertex -55.078824760606786 24.344454228542403 11.098705312098657
    vertex -61.078824760606786 26.344454228542393 11.09870531209865
  endloop
endfacet
facet normal 9.159339953157555e-16 -2.775557561562881e-16 -1.0
  outer loop
    vertex -61.078824760606786 26.344454228542393 11.09870531209865
    vertex -55.078824760606786 24.344454228542403 11.098705312098657
    vertex -61.078824760606786 24.3444542285424 11.098705312098652
  endloop
endfacet
facet normal 1.124100812432971e-15 -1.0 2.7755575615628914e-16
  outer loop
    vertex -55.078824760606786 24.344454228542403 11.098705312098657
    vertex -61.078824760606786 24.3444542285424 17.161205312098648
    vertex -61.078824760606786 24.3444542285424 11.098705312098652
  endloop
endfacet
facet normal 1.124100812432971e-15 -1.0 2.7755575615628914e-16
  outer loop
    vertex -61.078824760606786 24.3444542285424 17.161205312098648
    vertex -55.078824760606786 24.344454228542403 11.098705312098657
    vertex -55.078824760606786 24.344454228542407 17.161205312098655
  endloop
endfacet
facet normal 1.0 1.1241008124329712e-15 9.143356013905474e-16
  outer loop
    vertex -55.078824760606786 26.344454228542396 14.098705312098657
    vertex -55.078824760606786 24.344454228542403 11.098705312098657
    vertex -55.078824760606786 26.344454228542396 11.098705312098655
  endloop
endfacet
facet normal 1.0 1.1241008124329712e-15 9.143356013905474e-16
  outer loop
    vertex -55.078824760606786 24.344454228542403 11.098705312098657
    vertex -55.078824760606786 26.344454228542396 14.098705312098657
    vertex -55.078824760606786 24.344454228542407 17.161205312098655
  endloop
endfacet
facet normal 1.0 1.1241008124329712e-15 9.143356013905474e-16
  outer loop
    vertex -55.078824760606786 24.344454228542407 17.161205312098655
    vertex -55.078824760606786 26.344454228542396 14.098705312098657
    vertex -55.078824760606786 26.344454228542403 17.16120531209865
  endloop
endfacet
facet normal -9.159339953157555e-16 2.775557561562881e-16 1.0
  outer loop
    vertex -61.078824760606786 24.3444542285424 17.161205312098648
    vertex -55.078824760606786 26.344454228542403 17.16120531209865
    vertex -61.0788247606068 26.344454228542396 17.161205312098645
  endloop
endfacet
facet normal -9.159339953157555e-16 2.775557561562881e-16 1.0
  outer loop
    vertex -55.078824760606786 26.344454228542403 17.16120531209865
    vertex -61.078824760606786 24.3444542285424 17.161205312098648
    vertex -55.078824760606786 24.344454228542407 17.161205312098655
  endloop
endfacet
facet normal -1.0 -1.1173634879410082e-15 -9.407012613121473e-16
  outer loop
    vertex -61.078824760606786 24.3444542285424 17.161205312098648
    vertex -61.078824760606786 26.344454228542393 11.09870531209865
    vertex -61.078824760606786 24.3444542285424 11.098705312098652
  endloop
endfacet
facet normal -1.0 -1.1173634879410082e-15 -9.407012613121473e-16
  outer loop
    vertex -61.078824760606786 26.344454228542393 11.09870531209865
    vertex -61.078824760606786 24.3444542285424 17.161205312098648
    vertex -61.078824760606786 26.344454228542396 14.098705312098652
  endloop
endfacet
facet normal -1.0 -1.1173634879410082e-15 -9.407012613121473e-16
  outer loop
    vertex -61.078824760606786 26.344454228542396 14.098705312098652
    vertex -61.078824760606786 24.3444542285424 17.161205312098648
    vertex -61.078824760606786 26.344454228542396 14.12995531209865
  endloop
endfacet
facet normal -1.0 -1.1173634879410082e-15 -9.407012613121473e-16
  outer loop
    vertex -61.078824760606786 26.344454228542396 14.098705312098652
    vertex -61.078824760606786 26.344454228542396 14.12995531209865
    vertex -61.0788247606068 30.34445422854239 14.098705312098648
  endloop
endfacet
facet normal -1.0 -1.1173634879410082e-15 -9.407012613121473e-16
  outer loop
    vertex -61.078824760606786 26.344454228542396 14.12995531209865
    vertex -61.078824760606786 24.3444542285424 17.161205312098648
    vertex -61.0788247606068 26.344454228542396 17.161205312098645
  endloop
endfacet
facet normal -1.0 -1.1173634879410082e-15 -9.407012613121473e-16
  outer loop
    vertex -61.0788247606068 30.34445422854239 14.098705312098648
    vertex -61.0788247606068 38.344454228542396 11.098705312098646
    vertex -61.078824760606786 30.34445422854239 11.098705312098648
  endloop
endfacet
facet normal -1.0 -1.1173634879410082e-15 -9.407012613121473e-16
  outer loop
    vertex -61.0788247606068 38.344454228542396 11.098705312098646
    vertex -61.0788247606068 30.34445422854239 14.098705312098648
    vertex -61.07882476060681 38.344454228542396 17.161205312098645
  endloop
endfacet
facet normal -1.0 -1.1173634879410082e-15 -9.407012613121473e-16
  outer loop
    vertex -61.07882476060681 38.344454228542396 17.161205312098645
    vertex -61.0788247606068 30.34445422854239 14.098705312098648
    vertex -61.0788247606068 30.34445422854239 14.129955312098646
  endloop
endfacet
facet normal -1.0 -1.1173634879410082e-15 -9.407012613121473e-16
  outer loop
    vertex -61.0788247606068 30.34445422854239 14.129955312098646
    vertex -61.0788247606068 30.34445422854239 14.098705312098648
    vertex -61.078824760606786 26.344454228542396 14.12995531209865
  endloop
endfacet
facet normal -1.0 -1.1173634879410082e-15 -9.407012613121473e-16
  outer loop
    vertex -61.07882476060681 38.344454228542396 17.161205312098645
    vertex -61.0788247606068 30.34445422854239 14.129955312098646
    vertex -61.0788247606068 30.34445422854239 17.161205312098645
  endloop
endfacet
facet normal -0.608761429008722 -4.925375890061138e-16 0.7933533402912342
  outer loop
    vertex -60.20014510416644 26.344454228542396 16.220025655658294
    vertex -59.5788247606068 30.344454228542396 16.696781523451968
    vertex -60.20014510416644 30.344454228542396 16.220025655658294
  endloop
endfacet
facet normal -0.608761429008722 -4.925375890061138e-16 0.7933533402912342
  outer loop
    vertex -59.5788247606068 30.344454228542396 16.696781523451968
    vertex -60.20014510416644 26.344454228542396 16.220025655658294
    vertex -59.57882476060679 26.344454228542396 16.696781523451968
  endloop
endfacet
facet normal -0.608761429008722 -4.925375890061138e-16 0.7933533402912342
  outer loop
    vertex -59.57882476060679 26.344454228542396 16.696781523451968
    vertex -60.20014510416644 26.344454228542396 16.220025655658294
    vertex -60.17013679179099 26.344454228542396 16.243051843607677
  endloop
endfacet
facet normal 1.124100812432971e-15 -1.0 2.7755575615628914e-16
  outer loop
    vertex -61.0788247606068 38.344454228542396 11.098705312098646
    vertex -55.07882476060681 38.3444542285424 17.16120531209865
    vertex -61.07882476060681 38.344454228542396 17.161205312098645
  endloop
endfacet
facet normal 1.124100812432971e-15 -1.0 2.7755575615628914e-16
  outer loop
    vertex -55.07882476060681 38.3444542285424 17.16120531209865
    vertex -61.0788247606068 38.344454228542396 11.098705312098646
    vertex -55.0788247606068 38.3444542285424 11.098705312098653
  endloop
endfacet
facet normal 9.159339953157555e-16 -2.775557561562881e-16 -1.0
  outer loop
    vertex -55.0788247606068 30.3444542285424 11.098705312098653
    vertex -61.0788247606068 38.344454228542396 11.098705312098646
    vertex -55.0788247606068 38.3444542285424 11.098705312098653
  endloop
endfacet
facet normal 9.159339953157555e-16 -2.775557561562881e-16 -1.0
  outer loop
    vertex -61.0788247606068 38.344454228542396 11.098705312098646
    vertex -55.0788247606068 30.3444542285424 11.098705312098653
    vertex -61.078824760606786 30.34445422854239 11.098705312098648
  endloop
endfacet
facet normal 9.159339953157555e-16 -2.775557561562881e-16 -1.0
  outer loop
    vertex -61.078824760606786 30.34445422854239 11.098705312098648
    vertex -55.0788247606068 30.3444542285424 11.098705312098653
    vertex -58.07882476060679 30.344454228542396 11.098705312098652
  endloop
endfacet
facet normal -9.159339953157555e-16 2.775557561562881e-16 1.0
  outer loop
    vertex -64.14132476060685 54.34445422854238 20.286205312098634
    vertex -59.01632476060684 50.07650503611127 20.28620531209864
    vertex -51.89132476060685 54.3444542285424 20.286205312098645
  endloop
endfacet
facet normal -9.159339953157555e-16 2.775557561562881e-16 1.0
  outer loop
    vertex -59.01632476060684 50.07650503611127 20.28620531209864
    vertex -64.14132476060685 54.34445422854238 20.286205312098634
    vertex -59.43053832297994 49.75866779091548 20.28620531209864
  endloop
endfacet
facet normal -9.159339953157555e-16 2.775557561562881e-16 1.0
  outer loop
    vertex -59.43053832297994 49.75866779091548 20.28620531209864
    vertex -64.14132476060685 54.34445422854238 20.286205312098634
    vertex -59.74837556817572 49.34445422854239 20.28620531209864
  endloop
endfacet
facet normal -9.159339953157555e-16 2.775557561562881e-16 1.0
  outer loop
    vertex -59.74837556817572 49.34445422854239 20.28620531209864
    vertex -64.14132476060685 54.34445422854238 20.286205312098634
    vertex -64.14132476060684 41.34445422854239 20.28620531209864
  endloop
endfacet
facet normal -9.159339953157555e-16 2.775557561562881e-16 1.0
  outer loop
    vertex -51.89132476060685 54.3444542285424 20.286205312098645
    vertex -59.01632476060684 50.07650503611127 20.28620531209864
    vertex -58.53396285081189 50.27630588112052 20.286205312098645
  endloop
endfacet
facet normal -9.159339953157555e-16 2.775557561562881e-16 1.0
  outer loop
    vertex -51.89132476060685 54.3444542285424 20.286205312098645
    vertex -58.53396285081189 50.27630588112052 20.286205312098645
    vertex -58.01632476060684 50.344454228542396 20.286205312098645
  endloop
endfacet
facet normal -9.159339953157555e-16 2.775557561562881e-16 1.0
  outer loop
    vertex -59.74837556817572 49.34445422854239 20.28620531209864
    vertex -64.14132476060684 41.34445422854239 20.28620531209864
    vertex -59.948176413184974 48.86209231874743 20.28620531209864
  endloop
endfacet
facet normal -9.159339953157555e-16 2.775557561562881e-16 1.0
  outer loop
    vertex -59.948176413184974 48.86209231874743 20.28620531209864
    vertex -64.14132476060684 41.34445422854239 20.28620531209864
    vertex -60.016324760606835 48.34445422854239 20.28620531209864
  endloop
endfacet
facet normal -9.159339953157555e-16 2.775557561562881e-16 1.0
  outer loop
    vertex -60.016324760606835 48.34445422854239 20.28620531209864
    vertex -64.14132476060684 41.34445422854239 20.28620531209864
    vertex -59.948176413184974 47.82681613833734 20.28620531209864
  endloop
endfacet
facet normal -9.159339953157555e-16 2.775557561562881e-16 1.0
  outer loop
    vertex -59.948176413184974 47.82681613833734 20.28620531209864
    vertex -64.14132476060684 41.34445422854239 20.28620531209864
    vertex -59.74837556817572 47.34445422854239 20.28620531209864
  endloop
endfacet
facet normal -9.159339953157555e-16 2.775557561562881e-16 1.0
  outer loop
    vertex -59.74837556817572 47.34445422854239 20.28620531209864
    vertex -64.14132476060684 41.34445422854239 20.28620531209864
    vertex -59.43053832297993 46.93024066616929 20.28620531209864
  endloop
endfacet
facet normal -9.159339953157555e-16 2.775557561562881e-16 1.0
  outer loop
    vertex -59.43053832297993 46.93024066616929 20.28620531209864
    vertex -64.14132476060684 41.34445422854239 20.28620531209864
    vertex -59.01632476060684 46.612403420973514 20.286205312098645
  endloop
endfacet
facet normal -9.159339953157555e-16 2.775557561562881e-16 1.0
  outer loop
    vertex -59.01632476060684 46.612403420973514 20.286205312098645
    vertex -64.14132476060684 41.34445422854239 20.28620531209864
    vertex -58.533962850811875 46.41260257596425 20.286205312098645
  endloop
endfacet
facet normal -9.159339953157555e-16 2.775557561562881e-16 1.0
  outer loop
    vertex -58.533962850811875 46.41260257596425 20.286205312098645
    vertex -64.14132476060684 41.34445422854239 20.28620531209864
    vertex -58.01632476060684 46.344454228542396 20.286205312098645
  endloop
endfacet
facet normal -9.159339953157555e-16 2.775557561562881e-16 1.0
  outer loop
    vertex -51.89132476060685 54.3444542285424 20.286205312098645
    vertex -56.28427395303796 49.344454228542396 20.286205312098645
    vertex -51.891324760606835 41.3444542285424 20.28620531209865
  endloop
endfacet
facet normal -9.159339953157555e-16 2.775557561562881e-16 1.0
  outer loop
    vertex -56.28427395303796 49.344454228542396 20.286205312098645
    vertex -51.89132476060685 54.3444542285424 20.286205312098645
    vertex -56.60211119823374 49.75866779091549 20.286205312098645
  endloop
endfacet
facet normal -9.159339953157555e-16 2.775557561562881e-16 1.0
  outer loop
    vertex -56.60211119823374 49.75866779091549 20.286205312098645
    vertex -51.89132476060685 54.3444542285424 20.286205312098645
    vertex -57.01632476060684 50.07650503611127 20.286205312098645
  endloop
endfacet
facet normal -9.159339953157555e-16 2.775557561562881e-16 1.0
  outer loop
    vertex -57.01632476060684 50.07650503611127 20.286205312098645
    vertex -51.89132476060685 54.3444542285424 20.286205312098645
    vertex -57.498686670401796 50.27630588112053 20.286205312098645
  endloop
endfacet
facet normal -9.159339953157555e-16 2.775557561562881e-16 1.0
  outer loop
    vertex -57.498686670401796 50.27630588112053 20.286205312098645
    vertex -51.89132476060685 54.3444542285424 20.286205312098645
    vertex -58.01632476060684 50.344454228542396 20.286205312098645
  endloop
endfacet
facet normal -9.159339953157555e-16 2.775557561562881e-16 1.0
  outer loop
    vertex -51.891324760606835 41.3444542285424 20.28620531209865
    vertex -56.28427395303796 49.344454228542396 20.286205312098645
    vertex -56.08447310802871 48.862092318747436 20.286205312098645
  endloop
endfacet
facet normal -9.159339953157555e-16 2.775557561562881e-16 1.0
  outer loop
    vertex -51.891324760606835 41.3444542285424 20.28620531209865
    vertex -56.08447310802871 48.862092318747436 20.286205312098645
    vertex -56.01632476060684 48.34445422854239 20.286205312098645
  endloop
endfacet
facet normal -9.159339953157555e-16 2.775557561562881e-16 1.0
  outer loop
    vertex -51.891324760606835 41.3444542285424 20.28620531209865
    vertex -56.01632476060684 48.34445422854239 20.286205312098645
    vertex -56.08447310802871 47.82681613833735 20.286205312098645
  endloop
endfacet
facet normal -9.159339953157555e-16 2.775557561562881e-16 1.0
  outer loop
    vertex -51.891324760606835 41.3444542285424 20.28620531209865
    vertex -56.08447310802871 47.82681613833735 20.286205312098645
    vertex -56.28427395303796 47.344454228542396 20.286205312098645
  endloop
endfacet
facet normal -9.159339953157555e-16 2.775557561562881e-16 1.0
  outer loop
    vertex -51.891324760606835 41.3444542285424 20.28620531209865
    vertex -56.28427395303796 47.344454228542396 20.286205312098645
    vertex -56.60211119823374 46.9302406661693 20.286205312098645
  endloop
endfacet
facet normal -9.159339953157555e-16 2.775557561562881e-16 1.0
  outer loop
    vertex -51.891324760606835 41.3444542285424 20.28620531209865
    vertex -56.60211119823374 46.9302406661693 20.286205312098645
    vertex -57.01632476060684 46.612403420973514 20.286205312098645
  endloop
endfacet
facet normal -9.159339953157555e-16 2.775557561562881e-16 1.0
  outer loop
    vertex -51.891324760606835 41.3444542285424 20.28620531209865
    vertex -57.01632476060684 46.612403420973514 20.286205312098645
    vertex -57.498686670401796 46.41260257596426 20.286205312098645
  endloop
endfacet
facet normal -9.159339953157555e-16 2.775557561562881e-16 1.0
  outer loop
    vertex -51.891324760606835 41.3444542285424 20.28620531209865
    vertex -57.498686670401796 46.41260257596426 20.286205312098645
    vertex -58.01632476060684 46.344454228542396 20.286205312098645
  endloop
endfacet
facet normal -9.159339953157555e-16 2.775557561562881e-16 1.0
  outer loop
    vertex -51.891324760606835 41.3444542285424 20.28620531209865
    vertex -58.01632476060684 46.344454228542396 20.286205312098645
    vertex -64.14132476060684 41.34445422854239 20.28620531209864
  endloop
endfacet
facet normal -1.124100812432971e-15 1.0 -2.7755575615628914e-16
  outer loop
    vertex -64.14132476060685 54.34445422854238 20.286205312098634
    vertex -61.14132476060684 54.34445422854239 17.28620531209864
    vertex -64.14132476060684 54.34445422854238 8.036205312098637
  endloop
endfacet
facet normal -1.124100812432971e-15 1.0 -2.7755575615628914e-16
  outer loop
    vertex -61.14132476060684 54.34445422854239 17.28620531209864
    vertex -64.14132476060685 54.34445422854238 20.286205312098634
    vertex -51.89132476060685 54.3444542285424 20.286205312098645
  endloop
endfacet
facet normal -1.124100812432971e-15 1.0 -2.7755575615628914e-16
  outer loop
    vertex -61.14132476060684 54.34445422854239 17.28620531209864
    vertex -51.89132476060685 54.3444542285424 20.286205312098645
    vertex -54.89132476060684 54.34445422854239 17.286205312098645
  endloop
endfacet
facet normal -1.124100812432971e-15 1.0 -2.7755575615628914e-16
  outer loop
    vertex -54.89132476060684 54.34445422854239 17.286205312098645
    vertex -51.89132476060685 54.3444542285424 20.286205312098645
    vertex -54.89132476060684 54.34445422854239 11.036205312098646
  endloop
endfacet
facet normal -1.124100812432971e-15 1.0 -2.7755575615628914e-16
  outer loop
    vertex -64.14132476060684 54.34445422854238 8.036205312098637
    vertex -61.14132476060684 54.34445422854238 11.036205312098641
    vertex -51.891324760606835 54.34445422854239 8.036205312098648
  endloop
endfacet
facet normal -1.124100812432971e-15 1.0 -2.7755575615628914e-16
  outer loop
    vertex -61.14132476060684 54.34445422854238 11.036205312098641
    vertex -64.14132476060684 54.34445422854238 8.036205312098637
    vertex -61.14132476060684 54.34445422854239 17.28620531209864
  endloop
endfacet
facet normal -1.124100812432971e-15 1.0 -2.7755575615628914e-16
  outer loop
    vertex -51.891324760606835 54.34445422854239 8.036205312098648
    vertex -61.14132476060684 54.34445422854238 11.036205312098641
    vertex -54.89132476060684 54.34445422854239 11.036205312098646
  endloop
endfacet
facet normal -1.124100812432971e-15 1.0 -2.7755575615628914e-16
  outer loop
    vertex -51.891324760606835 54.34445422854239 8.036205312098648
    vertex -54.89132476060684 54.34445422854239 11.036205312098646
    vertex -51.89132476060685 54.3444542285424 20.286205312098645
  endloop
endfacet
facet normal 0.6087614290087189 0.7933533402912366 3.3738550160243334e-16
  outer loop
    vertex -59.01632476060684 46.612403420973514 20.286205312098645
    vertex -59.43053832297993 46.93024066616929 17.28620531209864
    vertex -59.43053832297993 46.93024066616929 20.28620531209864
  endloop
endfacet
facet normal 0.6087614290087189 0.7933533402912366 3.3738550160243334e-16
  outer loop
    vertex -59.43053832297993 46.93024066616929 17.28620531209864
    vertex -59.01632476060684 46.612403420973514 20.286205312098645
    vertex -59.01632476060684 46.612403420973514 17.286205312098645
  endloop
endfacet
facet normal 0.3826834323650898 0.9238795325112867 9.408468290381522e-17
  outer loop
    vertex -58.533962850811875 46.41260257596425 20.286205312098645
    vertex -59.01632476060684 46.612403420973514 17.286205312098645
    vertex -59.01632476060684 46.612403420973514 20.286205312098645
  endloop
endfacet
facet normal 0.3826834323650898 0.9238795325112867 9.408468290381522e-17
  outer loop
    vertex -59.01632476060684 46.612403420973514 17.286205312098645
    vertex -58.533962850811875 46.41260257596425 20.286205312098645
    vertex -58.533962850811875 46.41260257596425 17.286205312098645
  endloop
endfacet
facet normal 0.13052619222004813 0.991444861373811 -1.5562785145241342e-16
  outer loop
    vertex -58.01632476060684 46.344454228542396 20.286205312098645
    vertex -58.533962850811875 46.41260257596425 17.286205312098645
    vertex -58.533962850811875 46.41260257596425 20.286205312098645
  endloop
endfacet
facet normal 0.13052619222004813 0.991444861373811 -1.5562785145241342e-16
  outer loop
    vertex -58.533962850811875 46.41260257596425 17.286205312098645
    vertex -58.01632476060684 46.344454228542396 20.286205312098645
    vertex -58.01632476060683 46.344454228542396 17.286205312098645
  endloop
endfacet
facet normal -0.13052619222005282 0.9914448613738104 -3.9473460491933943e-16
  outer loop
    vertex -57.498686670401796 46.41260257596426 20.286205312098645
    vertex -58.01632476060683 46.344454228542396 17.286205312098645
    vertex -58.01632476060684 46.344454228542396 20.286205312098645
  endloop
endfacet
facet normal -0.13052619222005282 0.9914448613738104 -3.9473460491933943e-16
  outer loop
    vertex -58.01632476060683 46.344454228542396 17.286205312098645
    vertex -57.498686670401796 46.41260257596426 20.286205312098645
    vertex -57.498686670401796 46.41260257596426 17.286205312098645
  endloop
endfacet
facet normal -0.3826834323650901 0.9238795325112868 -6.069408473907918e-16
  outer loop
    vertex -57.01632476060684 46.612403420973514 20.286205312098645
    vertex -57.498686670401796 46.41260257596426 17.286205312098645
    vertex -57.498686670401796 46.41260257596426 20.286205312098645
  endloop
endfacet
facet normal -0.3826834323650901 0.9238795325112868 -6.069408473907918e-16
  outer loop
    vertex -57.498686670401796 46.41260257596426 17.286205312098645
    vertex -57.01632476060684 46.612403420973514 20.286205312098645
    vertex -57.01632476060683 46.612403420973514 17.286205312098645
  endloop
endfacet
facet normal -0.6087614290087222 0.793353340291234 -7.77785074129738e-16
  outer loop
    vertex -56.60211119823374 46.9302406661693 20.286205312098645
    vertex -57.01632476060683 46.612403420973514 17.286205312098645
    vertex -57.01632476060684 46.612403420973514 20.286205312098645
  endloop
endfacet
facet normal -0.6087614290087222 0.793353340291234 -7.77785074129738e-16
  outer loop
    vertex -57.01632476060683 46.612403420973514 17.286205312098645
    vertex -56.60211119823374 46.9302406661693 20.286205312098645
    vertex -56.60211119823374 46.9302406661693 17.286205312098645
  endloop
endfacet
facet normal -0.7933533402912354 0.6087614290087204 -8.956245334173491e-16
  outer loop
    vertex -56.60211119823374 46.9302406661693 20.286205312098645
    vertex -56.28427395303796 47.344454228542396 17.286205312098645
    vertex -56.60211119823374 46.9302406661693 17.286205312098645
  endloop
endfacet
facet normal -0.7933533402912354 0.6087614290087204 -8.956245334173491e-16
  outer loop
    vertex -56.28427395303796 47.344454228542396 17.286205312098645
    vertex -56.60211119823374 46.9302406661693 20.286205312098645
    vertex -56.28427395303796 47.344454228542396 20.286205312098645
  endloop
endfacet
facet normal -0.9238795325112875 0.3826834323650879 -9.524286608420917e-16
  outer loop
    vertex -56.28427395303796 47.344454228542396 20.286205312098645
    vertex -56.084473108028696 47.82681613833735 17.286205312098645
    vertex -56.28427395303796 47.344454228542396 17.286205312098645
  endloop
endfacet
facet normal -0.9238795325112875 0.3826834323650879 -9.524286608420917e-16
  outer loop
    vertex -56.084473108028696 47.82681613833735 17.286205312098645
    vertex -56.28427395303796 47.344454228542396 20.286205312098645
    vertex -56.08447310802871 47.82681613833735 20.286205312098645
  endloop
endfacet
facet normal -0.9914448613738107 0.1305261922200507 -9.443263489932269e-16
  outer loop
    vertex -56.08447310802871 47.82681613833735 20.286205312098645
    vertex -56.016324760606835 48.34445422854239 17.286205312098645
    vertex -56.084473108028696 47.82681613833735 17.286205312098645
  endloop
endfacet
facet normal -0.9914448613738107 0.1305261922200507 -9.443263489932269e-16
  outer loop
    vertex -56.016324760606835 48.34445422854239 17.286205312098645
    vertex -56.08447310802871 47.82681613833735 20.286205312098645
    vertex -56.01632476060684 48.34445422854239 20.286205312098645
  endloop
endfacet
facet normal -0.9914448613738103 -0.13052619222005274 -8.718697570335516e-16
  outer loop
    vertex -56.01632476060684 48.34445422854239 20.286205312098645
    vertex -56.084473108028696 48.862092318747436 17.286205312098645
    vertex -56.016324760606835 48.34445422854239 17.286205312098645
  endloop
endfacet
facet normal -0.9914448613738103 -0.13052619222005274 -8.718697570335516e-16
  outer loop
    vertex -56.084473108028696 48.862092318747436 17.286205312098645
    vertex -56.01632476060684 48.34445422854239 20.286205312098645
    vertex -56.08447310802871 48.862092318747436 20.286205312098645
  endloop
endfacet
facet normal -0.923879532511286 -0.38268343236509167 -7.399966819649377e-16
  outer loop
    vertex -56.08447310802871 48.862092318747436 20.286205312098645
    vertex -56.28427395303796 49.34445422854239 17.286205312098645
    vertex -56.084473108028696 48.862092318747436 17.286205312098645
  endloop
endfacet
facet normal -0.923879532511286 -0.38268343236509167 -7.399966819649377e-16
  outer loop
    vertex -56.28427395303796 49.34445422854239 17.286205312098645
    vertex -56.08447310802871 48.862092318747436 20.286205312098645
    vertex -56.28427395303796 49.344454228542396 20.286205312098645
  endloop
endfacet
facet normal -0.793353340291235 -0.6087614290087207 -5.576940559227531e-16
  outer loop
    vertex -56.28427395303796 49.344454228542396 20.286205312098645
    vertex -56.60211119823374 49.75866779091549 17.286205312098645
    vertex -56.28427395303796 49.34445422854239 17.286205312098645
  endloop
endfacet
facet normal -0.793353340291235 -0.6087614290087207 -5.576940559227531e-16
  outer loop
    vertex -56.60211119823374 49.75866779091549 17.286205312098645
    vertex -56.28427395303796 49.344454228542396 20.286205312098645
    vertex -56.60211119823374 49.75866779091549 20.286205312098645
  endloop
endfacet
facet normal -0.6087614290087189 -0.7933533402912364 -3.3738550160243334e-16
  outer loop
    vertex -56.60211119823374 49.75866779091549 17.286205312098645
    vertex -57.01632476060684 50.07650503611127 20.286205312098645
    vertex -57.01632476060684 50.07650503611127 17.286205312098645
  endloop
endfacet
facet normal -0.6087614290087189 -0.7933533402912364 -3.3738550160243334e-16
  outer loop
    vertex -57.01632476060684 50.07650503611127 20.286205312098645
    vertex -56.60211119823374 49.75866779091549 17.286205312098645
    vertex -56.60211119823374 49.75866779091549 20.286205312098645
  endloop
endfacet
facet normal -0.3826834323650879 -0.9238795325112875 -9.408468290381325e-17
  outer loop
    vertex -57.01632476060684 50.07650503611127 17.286205312098645
    vertex -57.498686670401796 50.27630588112053 20.286205312098645
    vertex -57.498686670401796 50.27630588112052 17.286205312098645
  endloop
endfacet
facet normal -0.3826834323650879 -0.9238795325112875 -9.408468290381325e-17
  outer loop
    vertex -57.498686670401796 50.27630588112053 20.286205312098645
    vertex -57.01632476060684 50.07650503611127 17.286205312098645
    vertex -57.01632476060684 50.07650503611127 20.286205312098645
  endloop
endfacet
facet normal 1.124100812432971e-15 -1.0 2.7755575615628914e-16
  outer loop
    vertex -64.14132476060682 41.34445422854238 8.036205312098641
    vertex -61.14132476060682 41.34445422854239 11.036205312098643
    vertex -64.14132476060684 41.34445422854239 20.28620531209864
  endloop
endfacet
facet normal 1.124100812432971e-15 -1.0 2.7755575615628914e-16
  outer loop
    vertex -61.14132476060682 41.34445422854239 11.036205312098643
    vertex -64.14132476060682 41.34445422854238 8.036205312098641
    vertex -51.89132476060682 41.344454228542396 8.036205312098653
  endloop
endfacet
facet normal 1.124100812432971e-15 -1.0 2.7755575615628914e-16
  outer loop
    vertex -61.14132476060682 41.34445422854239 11.036205312098643
    vertex -51.89132476060682 41.344454228542396 8.036205312098653
    vertex -54.89132476060683 41.34445422854239 11.036205312098648
  endloop
endfacet
facet normal 1.124100812432971e-15 -1.0 2.7755575615628914e-16
  outer loop
    vertex -54.89132476060683 41.34445422854239 11.036205312098648
    vertex -51.89132476060682 41.344454228542396 8.036205312098653
    vertex -54.89132476060683 41.344454228542396 17.286205312098648
  endloop
endfacet
facet normal 1.124100812432971e-15 -1.0 2.7755575615628914e-16
  outer loop
    vertex -64.14132476060684 41.34445422854239 20.28620531209864
    vertex -61.14132476060683 41.34445422854239 17.28620531209864
    vertex -51.891324760606835 41.3444542285424 20.28620531209865
  endloop
endfacet
facet normal 1.124100812432971e-15 -1.0 2.7755575615628914e-16
  outer loop
    vertex -61.14132476060683 41.34445422854239 17.28620531209864
    vertex -64.14132476060684 41.34445422854239 20.28620531209864
    vertex -61.14132476060682 41.34445422854239 11.036205312098643
  endloop
endfacet
facet normal 1.124100812432971e-15 -1.0 2.7755575615628914e-16
  outer loop
    vertex -51.891324760606835 41.3444542285424 20.28620531209865
    vertex -61.14132476060683 41.34445422854239 17.28620531209864
    vertex -54.89132476060683 41.344454228542396 17.286205312098648
  endloop
endfacet
facet normal 1.124100812432971e-15 -1.0 2.7755575615628914e-16
  outer loop
    vertex -51.891324760606835 41.3444542285424 20.28620531209865
    vertex -54.89132476060683 41.344454228542396 17.286205312098648
    vertex -51.89132476060682 41.344454228542396 8.036205312098653
  endloop
endfacet
facet normal -1.0 -1.1241008124329712e-15 -9.159339953157551e-16
  outer loop
    vertex -64.14132476060684 41.34445422854239 20.28620531209864
    vertex -64.14132476060684 54.34445422854238 8.036205312098637
    vertex -64.14132476060682 41.34445422854238 8.036205312098641
  endloop
endfacet
facet normal -1.0 -1.1241008124329712e-15 -9.159339953157551e-16
  outer loop
    vertex -64.14132476060684 54.34445422854238 8.036205312098637
    vertex -64.14132476060684 41.34445422854239 20.28620531209864
    vertex -64.14132476060685 54.34445422854238 20.286205312098634
  endloop
endfacet
facet normal 1.0 1.1241008124329712e-15 9.159339953157551e-16
  outer loop
    vertex -51.89132476060685 54.3444542285424 20.286205312098645
    vertex -51.89132476060682 41.344454228542396 8.036205312098653
    vertex -51.891324760606835 54.34445422854239 8.036205312098648
  endloop
endfacet
facet normal 1.0 1.1241008124329712e-15 9.159339953157551e-16
  outer loop
    vertex -51.89132476060682 41.344454228542396 8.036205312098653
    vertex -51.89132476060685 54.3444542285424 20.286205312098645
    vertex -51.891324760606835 41.3444542285424 20.28620531209865
  endloop
endfacet
facet normal 9.159339953157555e-16 -2.775557561562881e-16 -1.0
  outer loop
    vertex -51.89132476060682 41.344454228542396 8.036205312098653
    vertex -64.14132476060684 54.34445422854238 8.036205312098637
    vertex -51.891324760606835 54.34445422854239 8.036205312098648
  endloop
endfacet
facet normal 9.159339953157555e-16 -2.775557561562881e-16 -1.0
  outer loop
    vertex -64.14132476060684 54.34445422854238 8.036205312098637
    vertex -51.89132476060682 41.344454228542396 8.036205312098653
    vertex -64.14132476060682 41.34445422854238 8.036205312098641
  endloop
endfacet
facet normal -9.159339953157555e-16 2.775557561562881e-16 1.0
  outer loop
    vertex -61.14132476060682 41.34445422854239 11.036205312098643
    vertex -54.89132476060684 54.34445422854239 11.036205312098646
    vertex -61.14132476060684 54.34445422854238 11.036205312098641
  endloop
endfacet
facet normal -9.159339953157555e-16 2.775557561562881e-16 1.0
  outer loop
    vertex -54.89132476060684 54.34445422854239 11.036205312098646
    vertex -61.14132476060682 41.34445422854239 11.036205312098643
    vertex -54.89132476060683 41.34445422854239 11.036205312098648
  endloop
endfacet
facet normal -1.0 -1.1241008124329712e-15 -9.159339953157551e-16
  outer loop
    vertex -54.89132476060683 41.344454228542396 17.286205312098648
    vertex -54.89132476060684 54.34445422854239 11.036205312098646
    vertex -54.89132476060683 41.34445422854239 11.036205312098648
  endloop
endfacet
facet normal -1.0 -1.1241008124329712e-15 -9.159339953157551e-16
  outer loop
    vertex -54.89132476060684 54.34445422854239 11.036205312098646
    vertex -54.89132476060683 41.344454228542396 17.286205312098648
    vertex -54.89132476060684 54.34445422854239 17.286205312098645
  endloop
endfacet
facet normal 9.159339953157555e-16 -2.775557561562881e-16 -1.0
  outer loop
    vertex -54.89132476060684 54.34445422854239 17.286205312098645
    vertex -56.60211119823374 49.75866779091549 17.286205312098645
    vertex -61.14132476060684 54.34445422854239 17.28620531209864
  endloop
endfacet
facet normal 9.159339953157555e-16 -2.775557561562881e-16 -1.0
  outer loop
    vertex -56.60211119823374 49.75866779091549 17.286205312098645
    vertex -54.89132476060684 54.34445422854239 17.286205312098645
    vertex -56.28427395303796 49.34445422854239 17.286205312098645
  endloop
endfacet
facet normal 9.159339953157555e-16 -2.775557561562881e-16 -1.0
  outer loop
    vertex -56.28427395303796 49.34445422854239 17.286205312098645
    vertex -54.89132476060684 54.34445422854239 17.286205312098645
    vertex -56.084473108028696 48.862092318747436 17.286205312098645
  endloop
endfacet
facet normal 9.159339953157555e-16 -2.775557561562881e-16 -1.0
  outer loop
    vertex -56.084473108028696 48.862092318747436 17.286205312098645
    vertex -54.89132476060684 54.34445422854239 17.286205312098645
    vertex -54.89132476060683 41.344454228542396 17.286205312098648
  endloop
endfacet
facet normal 9.159339953157555e-16 -2.775557561562881e-16 -1.0
  outer loop
    vertex -61.14132476060684 54.34445422854239 17.28620531209864
    vertex -56.60211119823374 49.75866779091549 17.286205312098645
    vertex -57.01632476060684 50.07650503611127 17.286205312098645
  endloop
endfacet
facet normal 9.159339953157555e-16 -2.775557561562881e-16 -1.0
  outer loop
    vertex -61.14132476060684 54.34445422854239 17.28620531209864
    vertex -57.01632476060684 50.07650503611127 17.286205312098645
    vertex -57.498686670401796 50.27630588112052 17.286205312098645
  endloop
endfacet
facet normal 9.159339953157555e-16 -2.775557561562881e-16 -1.0
  outer loop
    vertex -61.14132476060684 54.34445422854239 17.28620531209864
    vertex -57.498686670401796 50.27630588112052 17.286205312098645
    vertex -58.01632476060684 50.34445422854239 17.286205312098645
  endloop
endfacet
facet normal 9.159339953157555e-16 -2.775557561562881e-16 -1.0
  outer loop
    vertex -56.084473108028696 48.862092318747436 17.286205312098645
    vertex -54.89132476060683 41.344454228542396 17.286205312098648
    vertex -56.016324760606835 48.34445422854239 17.286205312098645
  endloop
endfacet
facet normal 9.159339953157555e-16 -2.775557561562881e-16 -1.0
  outer loop
    vertex -56.016324760606835 48.34445422854239 17.286205312098645
    vertex -54.89132476060683 41.344454228542396 17.286205312098648
    vertex -56.084473108028696 47.82681613833735 17.286205312098645
  endloop
endfacet
facet normal 9.159339953157555e-16 -2.775557561562881e-16 -1.0
  outer loop
    vertex -56.084473108028696 47.82681613833735 17.286205312098645
    vertex -54.89132476060683 41.344454228542396 17.286205312098648
    vertex -56.28427395303796 47.344454228542396 17.286205312098645
  endloop
endfacet
facet normal 9.159339953157555e-16 -2.775557561562881e-16 -1.0
  outer loop
    vertex -56.28427395303796 47.344454228542396 17.286205312098645
    vertex -54.89132476060683 41.344454228542396 17.286205312098648
    vertex -56.60211119823374 46.9302406661693 17.286205312098645
  endloop
endfacet
facet normal 9.159339953157555e-16 -2.775557561562881e-16 -1.0
  outer loop
    vertex -56.60211119823374 46.9302406661693 17.286205312098645
    vertex -54.89132476060683 41.344454228542396 17.286205312098648
    vertex -57.01632476060683 46.612403420973514 17.286205312098645
  endloop
endfacet
facet normal 9.159339953157555e-16 -2.775557561562881e-16 -1.0
  outer loop
    vertex -57.01632476060683 46.612403420973514 17.286205312098645
    vertex -54.89132476060683 41.344454228542396 17.286205312098648
    vertex -57.498686670401796 46.41260257596426 17.286205312098645
  endloop
endfacet
facet normal 9.159339953157555e-16 -2.775557561562881e-16 -1.0
  outer loop
    vertex -57.498686670401796 46.41260257596426 17.286205312098645
    vertex -54.89132476060683 41.344454228542396 17.286205312098648
    vertex -58.01632476060683 46.344454228542396 17.286205312098645
  endloop
endfacet
facet normal 9.159339953157555e-16 -2.775557561562881e-16 -1.0
  outer loop
    vertex -61.14132476060684 54.34445422854239 17.28620531209864
    vertex -59.948176413184974 48.86209231874743 17.28620531209864
    vertex -61.14132476060683 41.34445422854239 17.28620531209864
  endloop
endfacet
facet normal 9.159339953157555e-16 -2.775557561562881e-16 -1.0
  outer loop
    vertex -59.948176413184974 48.86209231874743 17.28620531209864
    vertex -61.14132476060684 54.34445422854239 17.28620531209864
    vertex -59.74837556817572 49.34445422854239 17.28620531209864
  endloop
endfacet
facet normal 9.159339953157555e-16 -2.775557561562881e-16 -1.0
  outer loop
    vertex -59.74837556817572 49.34445422854239 17.28620531209864
    vertex -61.14132476060684 54.34445422854239 17.28620531209864
    vertex -59.43053832297994 49.75866779091548 17.28620531209864
  endloop
endfacet
facet normal 9.159339953157555e-16 -2.775557561562881e-16 -1.0
  outer loop
    vertex -59.43053832297994 49.75866779091548 17.28620531209864
    vertex -61.14132476060684 54.34445422854239 17.28620531209864
    vertex -59.01632476060684 50.076505036111264 17.28620531209864
  endloop
endfacet
facet normal 9.159339953157555e-16 -2.775557561562881e-16 -1.0
  outer loop
    vertex -59.01632476060684 50.076505036111264 17.28620531209864
    vertex -61.14132476060684 54.34445422854239 17.28620531209864
    vertex -58.53396285081189 50.27630588112052 17.286205312098645
  endloop
endfacet
facet normal 9.159339953157555e-16 -2.775557561562881e-16 -1.0
  outer loop
    vertex -58.53396285081189 50.27630588112052 17.286205312098645
    vertex -61.14132476060684 54.34445422854239 17.28620531209864
    vertex -58.01632476060684 50.34445422854239 17.286205312098645
  endloop
endfacet
facet normal 9.159339953157555e-16 -2.775557561562881e-16 -1.0
  outer loop
    vertex -61.14132476060683 41.34445422854239 17.28620531209864
    vertex -59.948176413184974 48.86209231874743 17.28620531209864
    vertex -60.016324760606835 48.34445422854238 17.28620531209864
  endloop
endfacet
facet normal 9.159339953157555e-16 -2.775557561562881e-16 -1.0
  outer loop
    vertex -61.14132476060683 41.34445422854239 17.28620531209864
    vertex -60.016324760606835 48.34445422854238 17.28620531209864
    vertex -59.948176413184974 47.82681613833734 17.28620531209864
  endloop
endfacet
facet normal 9.159339953157555e-16 -2.775557561562881e-16 -1.0
  outer loop
    vertex -61.14132476060683 41.34445422854239 17.28620531209864
    vertex -59.948176413184974 47.82681613833734 17.28620531209864
    vertex -59.74837556817571 47.34445422854239 17.28620531209864
  endloop
endfacet
facet normal 9.159339953157555e-16 -2.775557561562881e-16 -1.0
  outer loop
    vertex -61.14132476060683 41.34445422854239 17.28620531209864
    vertex -59.74837556817571 47.34445422854239 17.28620531209864
    vertex -59.43053832297993 46.93024066616929 17.28620531209864
  endloop
endfacet
facet normal 9.159339953157555e-16 -2.775557561562881e-16 -1.0
  outer loop
    vertex -61.14132476060683 41.34445422854239 17.28620531209864
    vertex -59.43053832297993 46.93024066616929 17.28620531209864
    vertex -59.01632476060684 46.612403420973514 17.286205312098645
  endloop
endfacet
facet normal 9.159339953157555e-16 -2.775557561562881e-16 -1.0
  outer loop
    vertex -61.14132476060683 41.34445422854239 17.28620531209864
    vertex -59.01632476060684 46.612403420973514 17.286205312098645
    vertex -58.533962850811875 46.41260257596425 17.286205312098645
  endloop
endfacet
facet normal 9.159339953157555e-16 -2.775557561562881e-16 -1.0
  outer loop
    vertex -61.14132476060683 41.34445422854239 17.28620531209864
    vertex -58.533962850811875 46.41260257596425 17.286205312098645
    vertex -58.01632476060683 46.344454228542396 17.286205312098645
  endloop
endfacet
facet normal 9.159339953157555e-16 -2.775557561562881e-16 -1.0
  outer loop
    vertex -61.14132476060683 41.34445422854239 17.28620531209864
    vertex -58.01632476060683 46.344454228542396 17.286205312098645
    vertex -54.89132476060683 41.344454228542396 17.286205312098648
  endloop
endfacet
facet normal 1.0 1.1241008124329712e-15 9.159339953157551e-16
  outer loop
    vertex -61.14132476060684 54.34445422854239 17.28620531209864
    vertex -61.14132476060682 41.34445422854239 11.036205312098643
    vertex -61.14132476060684 54.34445422854238 11.036205312098641
  endloop
endfacet
facet normal 1.0 1.1241008124329712e-15 9.159339953157551e-16
  outer loop
    vertex -61.14132476060682 41.34445422854239 11.036205312098643
    vertex -61.14132476060684 54.34445422854239 17.28620531209864
    vertex -61.14132476060683 41.34445422854239 17.28620531209864
  endloop
endfacet
facet normal 0.7933533402912342 0.608761429008722 5.576940559227518e-16
  outer loop
    vertex -59.74837556817572 47.34445422854239 20.28620531209864
    vertex -59.43053832297993 46.93024066616929 17.28620531209864
    vertex -59.74837556817571 47.34445422854239 17.28620531209864
  endloop
endfacet
facet normal 0.7933533402912342 0.608761429008722 5.576940559227518e-16
  outer loop
    vertex -59.43053832297993 46.93024066616929 17.28620531209864
    vertex -59.74837556817572 47.34445422854239 20.28620531209864
    vertex -59.43053832297993 46.93024066616929 20.28620531209864
  endloop
endfacet
facet normal 0.9238795325112861 0.38268343236509117 7.399966819649379e-16
  outer loop
    vertex -59.948176413184974 47.82681613833734 20.28620531209864
    vertex -59.74837556817571 47.34445422854239 17.28620531209864
    vertex -59.948176413184974 47.82681613833734 17.28620531209864
  endloop
endfacet
facet normal 0.9238795325112861 0.38268343236509117 7.399966819649379e-16
  outer loop
    vertex -59.74837556817571 47.34445422854239 17.28620531209864
    vertex -59.948176413184974 47.82681613833734 20.28620531209864
    vertex -59.74837556817572 47.34445422854239 20.28620531209864
  endloop
endfacet
facet normal 0.9914448613738103 0.1305261922200534 8.718697570335514e-16
  outer loop
    vertex -60.016324760606835 48.34445422854239 20.28620531209864
    vertex -59.948176413184974 47.82681613833734 17.28620531209864
    vertex -60.016324760606835 48.34445422854238 17.28620531209864
  endloop
endfacet
facet normal 0.9914448613738103 0.1305261922200534 8.718697570335514e-16
  outer loop
    vertex -59.948176413184974 47.82681613833734 17.28620531209864
    vertex -60.016324760606835 48.34445422854239 20.28620531209864
    vertex -59.948176413184974 47.82681613833734 20.28620531209864
  endloop
endfacet
facet normal 0.9914448613738106 -0.13052619222005002 9.443263489932265e-16
  outer loop
    vertex -59.948176413184974 48.86209231874743 20.28620531209864
    vertex -60.016324760606835 48.34445422854238 17.28620531209864
    vertex -59.948176413184974 48.86209231874743 17.28620531209864
  endloop
endfacet
facet normal 0.9914448613738106 -0.13052619222005002 9.443263489932265e-16
  outer loop
    vertex -60.016324760606835 48.34445422854238 17.28620531209864
    vertex -59.948176413184974 48.86209231874743 20.28620531209864
    vertex -60.016324760606835 48.34445422854239 20.28620531209864
  endloop
endfacet
facet normal 0.9238795325112874 -0.38268343236508845 9.524286608420917e-16
  outer loop
    vertex -59.74837556817572 49.34445422854239 20.28620531209864
    vertex -59.948176413184974 48.86209231874743 17.28620531209864
    vertex -59.74837556817572 49.34445422854239 17.28620531209864
  endloop
endfacet
facet normal 0.9238795325112874 -0.38268343236508845 9.524286608420917e-16
  outer loop
    vertex -59.948176413184974 48.86209231874743 17.28620531209864
    vertex -59.74837556817572 49.34445422854239 20.28620531209864
    vertex -59.948176413184974 48.86209231874743 20.28620531209864
  endloop
endfacet
facet normal 0.7933533402912362 -0.6087614290087193 8.956245334173497e-16
  outer loop
    vertex -59.43053832297994 49.75866779091548 20.28620531209864
    vertex -59.74837556817572 49.34445422854239 17.28620531209864
    vertex -59.43053832297994 49.75866779091548 17.28620531209864
  endloop
endfacet
facet normal 0.7933533402912362 -0.6087614290087193 8.956245334173497e-16
  outer loop
    vertex -59.74837556817572 49.34445422854239 17.28620531209864
    vertex -59.43053832297994 49.75866779091548 20.28620531209864
    vertex -59.74837556817572 49.34445422854239 20.28620531209864
  endloop
endfacet
facet normal 0.6087614290087219 -0.7933533402912344 7.777850741297377e-16
  outer loop
    vertex -59.01632476060684 50.076505036111264 17.28620531209864
    vertex -59.43053832297994 49.75866779091548 20.28620531209864
    vertex -59.43053832297994 49.75866779091548 17.28620531209864
  endloop
endfacet
facet normal 0.6087614290087219 -0.7933533402912344 7.777850741297377e-16
  outer loop
    vertex -59.43053832297994 49.75866779091548 20.28620531209864
    vertex -59.01632476060684 50.076505036111264 17.28620531209864
    vertex -59.01632476060684 50.07650503611127 20.28620531209864
  endloop
endfacet
facet normal 0.38268343236509145 -0.9238795325112861 6.069408473907929e-16
  outer loop
    vertex -58.53396285081189 50.27630588112052 17.286205312098645
    vertex -59.01632476060684 50.07650503611127 20.28620531209864
    vertex -59.01632476060684 50.076505036111264 17.28620531209864
  endloop
endfacet
facet normal 0.38268343236509145 -0.9238795325112861 6.069408473907929e-16
  outer loop
    vertex -59.01632476060684 50.07650503611127 20.28620531209864
    vertex -58.53396285081189 50.27630588112052 17.286205312098645
    vertex -58.53396285081189 50.27630588112052 20.286205312098645
  endloop
endfacet
facet normal 0.13052619222005246 -0.9914448613738103 3.9473460491933904e-16
  outer loop
    vertex -58.01632476060684 50.34445422854239 17.286205312098645
    vertex -58.53396285081189 50.27630588112052 20.286205312098645
    vertex -58.53396285081189 50.27630588112052 17.286205312098645
  endloop
endfacet
facet normal 0.13052619222005246 -0.9914448613738103 3.9473460491933904e-16
  outer loop
    vertex -58.53396285081189 50.27630588112052 20.286205312098645
    vertex -58.01632476060684 50.34445422854239 17.286205312098645
    vertex -58.01632476060684 50.344454228542396 20.286205312098645
  endloop
endfacet
facet normal -0.1305261922200507 -0.9914448613738107 1.5562785145241095e-16
  outer loop
    vertex -57.498686670401796 50.27630588112052 17.286205312098645
    vertex -58.01632476060684 50.344454228542396 20.286205312098645
    vertex -58.01632476060684 50.34445422854239 17.286205312098645
  endloop
endfacet
facet normal -0.1305261922200507 -0.9914448613738107 1.5562785145241095e-16
  outer loop
    vertex -58.01632476060684 50.344454228542396 20.286205312098645
    vertex -57.498686670401796 50.27630588112052 17.286205312098645
    vertex -57.498686670401796 50.27630588112053 20.286205312098645
  endloop
endfacet
endsolid Complete Setup
