solid Complete Setup
facet normal 0.4362677541394499 0.09784364181871888 0.894481452269286
  outer loop
    vertex -44.10369630487125 11.607163810579095 20.196987407471678
    vertex -46.84099619856505 12.556561952566692 21.428207017991237
    vertex -46.80007844376875 11.607163810579088 21.512100847838905
  endloop
endfacet
facet normal 0.4362677541394499 0.09784364181871888 0.894481452269286
  outer loop
    vertex -46.84099619856505 12.556561952566692 21.428207017991237
    vertex -44.10369630487125 11.607163810579095 20.196987407471678
    vertex -44.144614059667575 12.556561952566696 20.113093577624007
  endloop
endfacet
facet normal 0.41956152923468826 0.28978414868842695 0.8602286151687663
  outer loop
    vertex -44.144614059667575 12.556561952566696 20.113093577624007
    vertex -46.96218257837969 13.46960430448337 21.179738117910208
    vertex -46.84099619856505 12.556561952566692 21.428207017991237
  endloop
endfacet
facet normal 0.41956152923468826 0.28978414868842695 0.8602286151687663
  outer loop
    vertex -46.96218257837969 13.46960430448337 21.179738117910208
    vertex -44.144614059667575 12.556561952566696 20.113093577624007
    vertex -44.26580043948219 13.469604304483376 19.864624677542977
  endloop
endfacet
facet normal 0.3867888194653593 0.47062780249968755 0.7930346024297483
  outer loop
    vertex -44.26580043948219 13.469604304483376 19.864624677542977
    vertex -47.15899693100453 14.311327267177086 20.776208894645556
    vertex -46.96218257837969 13.46960430448337 21.179738117910208
  endloop
endfacet
facet normal 0.3867888194653593 0.47062780249968755 0.7930346024297483
  outer loop
    vertex -47.15899693100453 14.311327267177086 20.776208894645556
    vertex -44.26580043948219 13.469604304483376 19.864624677542977
    vertex -44.46261479210702 14.31132726717709 19.461095454278325
  endloop
endfacet
facet normal 0.33920460701831956 0.6334494644483983 0.6954725088510579
  outer loop
    vertex -47.15899693100453 14.311327267177086 20.776208894645556
    vertex -44.727520404575706 15.04949831145255 18.9179584593779
    vertex -47.42390254347321 15.049498311452545 20.23307189974513
  endloop
endfacet
facet normal 0.33920460701831956 0.6334494644483983 0.6954725088510579
  outer loop
    vertex -44.727520404575706 15.04949831145255 18.9179584593779
    vertex -47.15899693100453 14.311327267177086 20.776208894645556
    vertex -44.46261479210702 14.31132726717709 19.461095454278325
  endloop
endfacet
facet normal 0.2786310585504281 0.7720141211097279 0.5712783297292507
  outer loop
    vertex -47.746755249276845 15.655850274846246 19.571125756771657
    vertex -44.727520404575706 15.04949831145255 18.9179584593779
    vertex -45.05037311037935 15.655850274846252 18.25601231640442
  endloop
endfacet
facet normal 0.2786310585504281 0.7720141211097279 0.5712783297292507
  outer loop
    vertex -44.727520404575706 15.04949831145255 18.9179584593779
    vertex -47.746755249276845 15.655850274846246 19.571125756771657
    vertex -47.42390254347321 15.049498311452545 20.23307189974513
  endloop
endfacet
facet normal 0.20738774802602772 0.8810156450056034 0.4252078964742467
  outer loop
    vertex -47.746755249276845 15.655850274846246 19.571125756771657
    vertex -45.41880974523848 16.1071638105791 17.500605268574184
    vertex -48.115191884135974 16.107163810579095 18.815718708941418
  endloop
endfacet
facet normal 0.20738774802602772 0.8810156450056034 0.4252078964742467
  outer loop
    vertex -45.41880974523848 16.1071638105791 17.500605268574184
    vertex -47.746755249276845 15.655850274846246 19.571125756771657
    vertex -45.05037311037935 15.655850274846252 18.25601231640442
  endloop
endfacet
facet normal 0.20738774802602875 -0.8810156450056051 0.42520789647424256
  outer loop
    vertex -45.41880974523848 7.107163810579104 17.500605268574155
    vertex -47.746755249276845 7.558477346311946 19.571125756771618
    vertex -48.11519188413598 7.107163810579099 18.815718708941382
  endloop
endfacet
facet normal 0.20738774802602875 -0.8810156450056051 0.42520789647424256
  outer loop
    vertex -47.746755249276845 7.558477346311946 19.571125756771618
    vertex -45.41880974523848 7.107163810579104 17.500605268574155
    vertex -45.05037311037934 7.558477346311951 18.256012316404384
  endloop
endfacet
facet normal 0.2786310585504283 -0.7720141211097313 0.5712783297292459
  outer loop
    vertex -44.727520404575706 8.16482930970565 18.91795845937788
    vertex -47.746755249276845 7.558477346311946 19.571125756771618
    vertex -45.05037311037934 7.558477346311951 18.256012316404384
  endloop
endfacet
facet normal 0.2786310585504283 -0.7720141211097313 0.5712783297292459
  outer loop
    vertex -47.746755249276845 7.558477346311946 19.571125756771618
    vertex -44.727520404575706 8.16482930970565 18.91795845937788
    vertex -47.42390254347321 8.164829309705645 20.23307189974511
  endloop
endfacet
facet normal 0.33920460701831906 -0.6334494644484047 0.6954725088510524
  outer loop
    vertex -44.727520404575706 8.16482930970565 18.91795845937788
    vertex -47.15899693100453 8.903000353981103 20.776208894645535
    vertex -47.42390254347321 8.164829309705645 20.23307189974511
  endloop
endfacet
facet normal 0.33920460701831906 -0.6334494644484047 0.6954725088510524
  outer loop
    vertex -47.15899693100453 8.903000353981103 20.776208894645535
    vertex -44.727520404575706 8.16482930970565 18.91795845937788
    vertex -44.462614792107026 8.903000353981106 19.4610954542783
  endloop
endfacet
facet normal 0.38678881946535926 -0.4706278024996932 0.7930346024297449
  outer loop
    vertex -44.462614792107026 8.903000353981106 19.4610954542783
    vertex -46.96218257837969 9.744723316674813 21.179738117910198
    vertex -47.15899693100453 8.903000353981103 20.776208894645535
  endloop
endfacet
facet normal 0.38678881946535926 -0.4706278024996932 0.7930346024297449
  outer loop
    vertex -46.96218257837969 9.744723316674813 21.179738117910198
    vertex -44.462614792107026 8.903000353981106 19.4610954542783
    vertex -44.26580043948219 9.744723316674817 19.864624677542963
  endloop
endfacet
facet normal 0.4195615292346884 -0.2897841486884322 0.8602286151687644
  outer loop
    vertex -44.26580043948219 9.744723316674817 19.864624677542963
    vertex -46.84099619856506 10.65776566859149 21.428207017991227
    vertex -46.96218257837969 9.744723316674813 21.179738117910198
  endloop
endfacet
facet normal 0.4195615292346884 -0.2897841486884322 0.8602286151687644
  outer loop
    vertex -46.84099619856506 10.65776566859149 21.428207017991227
    vertex -44.26580043948219 9.744723316674817 19.864624677542963
    vertex -44.14461405966756 10.657765668591493 20.113093577624003
  endloop
endfacet
facet normal 0.4362677541394498 -0.09784364181872696 0.8944814522692851
  outer loop
    vertex -44.14461405966756 10.657765668591493 20.113093577624003
    vertex -46.80007844376875 11.607163810579088 21.512100847838905
    vertex -46.84099619856506 10.65776566859149 21.428207017991227
  endloop
endfacet
facet normal 0.4362677541394498 -0.09784364181872696 0.8944814522692851
  outer loop
    vertex -46.80007844376875 11.607163810579088 21.512100847838905
    vertex -44.14461405966756 10.657765668591493 20.113093577624003
    vertex -44.10369630487125 11.607163810579095 20.196987407471678
  endloop
endfacet
facet normal -0.898794046299167 -1.4815164516335039e-15 0.4383711467890775
  outer loop
    vertex -47.746755249276845 7.558477346311946 19.571125756771618
    vertex -48.99193417771414 7.107163810579106 17.018130616343065
    vertex -48.11519188413598 7.107163810579099 18.815718708941382
  endloop
endfacet
facet normal -0.898794046299167 -1.4815164516335039e-15 0.4383711467890775
  outer loop
    vertex -48.99193417771414 7.107163810579106 17.018130616343065
    vertex -47.746755249276845 7.558477346311946 19.571125756771618
    vertex -48.623497542855006 7.558477346311953 17.773537664173297
  endloop
endfacet
facet normal -0.898794046299167 -1.4815164516335039e-15 0.4383711467890775
  outer loop
    vertex -48.623497542855006 7.558477346311953 17.773537664173297
    vertex -47.746755249276845 7.558477346311946 19.571125756771618
    vertex -47.42390254347321 8.164829309705645 20.23307189974511
  endloop
endfacet
facet normal -0.898794046299167 -1.4815164516335039e-15 0.4383711467890775
  outer loop
    vertex -48.623497542855006 7.558477346311953 17.773537664173297
    vertex -47.42390254347321 8.164829309705645 20.23307189974511
    vertex -48.300644837051365 8.164829309705652 18.43548380714677
  endloop
endfacet
facet normal -0.898794046299167 -1.4815164516335039e-15 0.4383711467890775
  outer loop
    vertex -48.300644837051365 8.164829309705652 18.43548380714677
    vertex -47.42390254347321 8.164829309705645 20.23307189974511
    vertex -47.15899693100453 8.903000353981103 20.776208894645535
  endloop
endfacet
facet normal -0.898794046299167 -1.4815164516335039e-15 0.4383711467890775
  outer loop
    vertex -48.300644837051365 8.164829309705652 18.43548380714677
    vertex -47.15899693100453 8.903000353981103 20.776208894645535
    vertex -48.11519188413598 8.681602052426243 18.81571870894139
  endloop
endfacet
facet normal -0.898794046299167 -1.4815164516335039e-15 0.4383711467890775
  outer loop
    vertex -48.11519188413598 8.681602052426243 18.81571870894139
    vertex -47.15899693100453 8.903000353981103 20.776208894645535
    vertex -48.035739224582684 8.903000353981108 18.978620802047207
  endloop
endfacet
facet normal -0.898794046299167 -1.4815164516335039e-15 0.4383711467890775
  outer loop
    vertex -48.035739224582684 8.903000353981108 18.978620802047207
    vertex -47.15899693100453 8.903000353981103 20.776208894645535
    vertex -47.83892487195784 9.74472331667482 19.38215002531186
  endloop
endfacet
facet normal -0.898794046299167 -1.4815164516335039e-15 0.4383711467890775
  outer loop
    vertex -47.83892487195784 9.74472331667482 19.38215002531186
    vertex -47.15899693100453 8.903000353981103 20.776208894645535
    vertex -46.96218257837969 9.744723316674813 21.179738117910198
  endloop
endfacet
facet normal -0.898794046299167 -1.4815164516335039e-15 0.4383711467890775
  outer loop
    vertex -47.83892487195784 9.74472331667482 19.38215002531186
    vertex -46.96218257837969 9.744723316674813 21.179738117910198
    vertex -46.84099619856506 10.65776566859149 21.428207017991227
  endloop
endfacet
facet normal -0.898794046299167 -1.4815164516335039e-15 0.4383711467890775
  outer loop
    vertex -47.83892487195784 9.74472331667482 19.38215002531186
    vertex -46.84099619856506 10.65776566859149 21.428207017991227
    vertex -47.71773849214322 10.657765668591496 19.6306189253929
  endloop
endfacet
facet normal -0.898794046299167 -1.4815164516335039e-15 0.4383711467890775
  outer loop
    vertex -47.71773849214322 10.657765668591496 19.6306189253929
    vertex -46.84099619856506 10.65776566859149 21.428207017991227
    vertex -46.80007844376875 11.607163810579088 21.512100847838905
  endloop
endfacet
facet normal -0.898794046299167 -1.4815164516335039e-15 0.4383711467890775
  outer loop
    vertex -47.71773849214322 10.657765668591496 19.6306189253929
    vertex -46.80007844376875 11.607163810579088 21.512100847838905
    vertex -47.6768207373469 11.607163810579095 19.71451275524057
  endloop
endfacet
facet normal -0.898794046299167 -1.4815164516335039e-15 0.4383711467890775
  outer loop
    vertex -47.6768207373469 11.607163810579095 19.71451275524057
    vertex -46.80007844376875 11.607163810579088 21.512100847838905
    vertex -47.71773849214322 12.556561952566698 19.63061892539291
  endloop
endfacet
facet normal -0.898794046299167 -1.4815164516335039e-15 0.4383711467890775
  outer loop
    vertex -47.71773849214322 12.556561952566698 19.63061892539291
    vertex -46.80007844376875 11.607163810579088 21.512100847838905
    vertex -46.84099619856505 12.556561952566692 21.428207017991237
  endloop
endfacet
facet normal -0.898794046299167 -1.4815164516335039e-15 0.4383711467890775
  outer loop
    vertex -47.71773849214322 12.556561952566698 19.63061892539291
    vertex -46.84099619856505 12.556561952566692 21.428207017991237
    vertex -47.83892487195784 13.469604304483383 19.382150025311873
  endloop
endfacet
facet normal -0.898794046299167 -1.4815164516335039e-15 0.4383711467890775
  outer loop
    vertex -47.83892487195784 13.469604304483383 19.382150025311873
    vertex -46.84099619856505 12.556561952566692 21.428207017991237
    vertex -46.96218257837969 13.46960430448337 21.179738117910208
  endloop
endfacet
facet normal -0.898794046299167 -1.4815164516335039e-15 0.4383711467890775
  outer loop
    vertex -47.83892487195784 13.469604304483383 19.382150025311873
    vertex -46.96218257837969 13.46960430448337 21.179738117910208
    vertex -47.15899693100453 14.311327267177086 20.776208894645556
  endloop
endfacet
facet normal -0.898794046299167 -1.4815164516335039e-15 0.4383711467890775
  outer loop
    vertex -47.83892487195784 13.469604304483383 19.382150025311873
    vertex -47.15899693100453 14.311327267177086 20.776208894645556
    vertex -48.035739224582684 14.311327267177091 18.978620802047224
  endloop
endfacet
facet normal -0.898794046299167 -1.4815164516335039e-15 0.4383711467890775
  outer loop
    vertex -48.035739224582684 14.311327267177091 18.978620802047224
    vertex -47.15899693100453 14.311327267177086 20.776208894645556
    vertex -48.115191884135974 14.532725568731957 18.81571870894141
  endloop
endfacet
facet normal -0.898794046299167 -1.4815164516335039e-15 0.4383711467890775
  outer loop
    vertex -48.115191884135974 14.532725568731957 18.81571870894141
    vertex -47.15899693100453 14.311327267177086 20.776208894645556
    vertex -47.42390254347321 15.049498311452545 20.23307189974513
  endloop
endfacet
facet normal -0.898794046299167 -1.4815164516335039e-15 0.4383711467890775
  outer loop
    vertex -48.115191884135974 14.532725568731957 18.81571870894141
    vertex -47.42390254347321 15.049498311452545 20.23307189974513
    vertex -48.30064483705138 15.04949831145255 18.435483807146802
  endloop
endfacet
facet normal -0.898794046299167 -1.4815164516335039e-15 0.4383711467890775
  outer loop
    vertex -48.30064483705138 15.04949831145255 18.435483807146802
    vertex -47.42390254347321 15.049498311452545 20.23307189974513
    vertex -48.623497542855006 15.655850274846252 17.773537664173325
  endloop
endfacet
facet normal -0.898794046299167 -1.4815164516335039e-15 0.4383711467890775
  outer loop
    vertex -48.623497542855006 15.655850274846252 17.773537664173325
    vertex -47.42390254347321 15.049498311452545 20.23307189974513
    vertex -47.746755249276845 15.655850274846246 19.571125756771657
  endloop
endfacet
facet normal -0.898794046299167 -1.4815164516335039e-15 0.4383711467890775
  outer loop
    vertex -48.623497542855006 15.655850274846252 17.773537664173325
    vertex -47.746755249276845 15.655850274846246 19.571125756771657
    vertex -48.99193417771414 16.107163810579102 17.018130616343097
  endloop
endfacet
facet normal -0.898794046299167 -1.4815164516335039e-15 0.4383711467890775
  outer loop
    vertex -48.99193417771414 16.107163810579102 17.018130616343097
    vertex -47.746755249276845 15.655850274846246 19.571125756771657
    vertex -48.115191884135974 16.107163810579095 18.815718708941418
  endloop
endfacet
facet normal 5.728504684226797e-17 1.0 3.6691084920790875e-15
  outer loop
    vertex -48.115191884135974 16.107163810579095 18.815718708941418
    vertex -46.0763664654221 16.107163810579106 16.15241419912545
    vertex -48.99193417771414 16.107163810579102 17.018130616343097
  endloop
endfacet
facet normal 5.728504684226797e-17 1.0 3.6691084920790875e-15
  outer loop
    vertex -46.0763664654221 16.107163810579106 16.15241419912545
    vertex -48.115191884135974 16.107163810579095 18.815718708941418
    vertex -45.41880974523848 16.1071638105791 17.500605268574184
  endloop
endfacet
facet normal -5.728504684226797e-17 -1.0 -3.6691084920790875e-15
  outer loop
    vertex -46.0763664654221 7.107163810579109 16.152414199125417
    vertex -48.11519188413598 7.107163810579099 18.815718708941382
    vertex -48.99193417771414 7.107163810579106 17.018130616343065
  endloop
endfacet
facet normal -5.728504684226797e-17 -1.0 -3.6691084920790875e-15
  outer loop
    vertex -48.11519188413598 7.107163810579099 18.815718708941382
    vertex -46.0763664654221 7.107163810579109 16.152414199125417
    vertex -45.41880974523848 7.107163810579104 17.500605268574155
  endloop
endfacet
facet normal 0.8987940462991669 1.5572001973163107e-15 -0.43837114678907735
  outer loop
    vertex -45.70792983056297 7.558477346311956 16.907821246955635
    vertex -45.41880974523848 7.107163810579104 17.500605268574155
    vertex -46.0763664654221 7.107163810579109 16.152414199125417
  endloop
endfacet
facet normal 0.8987940462991669 1.5572001973163107e-15 -0.43837114678907735
  outer loop
    vertex -45.41880974523848 7.107163810579104 17.500605268574155
    vertex -45.70792983056297 7.558477346311956 16.907821246955635
    vertex -45.05037311037934 7.558477346311951 18.256012316404384
  endloop
endfacet
facet normal 0.8987940462991669 1.5572001973163107e-15 -0.43837114678907735
  outer loop
    vertex -45.05037311037934 7.558477346311951 18.256012316404384
    vertex -45.70792983056297 7.558477346311956 16.907821246955635
    vertex -44.727520404575706 8.16482930970565 18.91795845937788
  endloop
endfacet
facet normal 0.8987940462991669 1.5572001973163107e-15 -0.43837114678907735
  outer loop
    vertex -44.727520404575706 8.16482930970565 18.91795845937788
    vertex -45.70792983056297 7.558477346311956 16.907821246955635
    vertex -45.38507712475932 8.164829309705656 17.569767389929122
  endloop
endfacet
facet normal 0.8987940462991669 1.5572001973163107e-15 -0.43837114678907735
  outer loop
    vertex -44.727520404575706 8.16482930970565 18.91795845937788
    vertex -45.38507712475932 8.164829309705656 17.569767389929122
    vertex -44.462614792107026 8.903000353981106 19.4610954542783
  endloop
endfacet
facet normal 0.8987940462991669 1.5572001973163107e-15 -0.43837114678907735
  outer loop
    vertex -44.462614792107026 8.903000353981106 19.4610954542783
    vertex -45.38507712475932 8.164829309705656 17.569767389929122
    vertex -45.19962417184394 8.681602052426243 17.950002291723745
  endloop
endfacet
facet normal 0.8987940462991669 1.5572001973163107e-15 -0.43837114678907735
  outer loop
    vertex -44.462614792107026 8.903000353981106 19.4610954542783
    vertex -45.19962417184394 8.681602052426243 17.950002291723745
    vertex -45.12017151229065 8.90300035398111 18.112904384829555
  endloop
endfacet
facet normal 0.8987940462991669 1.5572001973163107e-15 -0.43837114678907735
  outer loop
    vertex -44.462614792107026 8.903000353981106 19.4610954542783
    vertex -45.12017151229065 8.90300035398111 18.112904384829555
    vertex -44.923357159665805 9.744723316674822 18.516433608094214
  endloop
endfacet
facet normal 0.8987940462991669 1.5572001973163107e-15 -0.43837114678907735
  outer loop
    vertex -44.462614792107026 8.903000353981106 19.4610954542783
    vertex -44.923357159665805 9.744723316674822 18.516433608094214
    vertex -44.26580043948219 9.744723316674817 19.864624677542963
  endloop
endfacet
facet normal 0.8987940462991669 1.5572001973163107e-15 -0.43837114678907735
  outer loop
    vertex -44.26580043948219 9.744723316674817 19.864624677542963
    vertex -44.923357159665805 9.744723316674822 18.516433608094214
    vertex -44.802170779851174 10.6577656685915 18.764902508175247
  endloop
endfacet
facet normal 0.8987940462991669 1.5572001973163107e-15 -0.43837114678907735
  outer loop
    vertex -44.26580043948219 9.744723316674817 19.864624677542963
    vertex -44.802170779851174 10.6577656685915 18.764902508175247
    vertex -44.14461405966756 10.657765668591493 20.113093577624003
  endloop
endfacet
facet normal 0.8987940462991669 1.5572001973163107e-15 -0.43837114678907735
  outer loop
    vertex -44.14461405966756 10.657765668591493 20.113093577624003
    vertex -44.802170779851174 10.6577656685915 18.764902508175247
    vertex -44.761253025054856 11.6071638105791 18.84879633802292
  endloop
endfacet
facet normal 0.8987940462991669 1.5572001973163107e-15 -0.43837114678907735
  outer loop
    vertex -44.14461405966756 10.657765668591493 20.113093577624003
    vertex -44.761253025054856 11.6071638105791 18.84879633802292
    vertex -44.10369630487125 11.607163810579095 20.196987407471678
  endloop
endfacet
facet normal 0.8987940462991669 1.5572001973163107e-15 -0.43837114678907735
  outer loop
    vertex -44.10369630487125 11.607163810579095 20.196987407471678
    vertex -44.761253025054856 11.6071638105791 18.84879633802292
    vertex -44.802170779851174 12.5565619525667 18.764902508175254
  endloop
endfacet
facet normal 0.8987940462991669 1.5572001973163107e-15 -0.43837114678907735
  outer loop
    vertex -44.10369630487125 11.607163810579095 20.196987407471678
    vertex -44.802170779851174 12.5565619525667 18.764902508175254
    vertex -44.144614059667575 12.556561952566696 20.113093577624007
  endloop
endfacet
facet normal 0.8987940462991669 1.5572001973163107e-15 -0.43837114678907735
  outer loop
    vertex -44.144614059667575 12.556561952566696 20.113093577624007
    vertex -44.802170779851174 12.5565619525667 18.764902508175254
    vertex -44.9233571596658 13.469604304483385 18.516433608094225
  endloop
endfacet
facet normal 0.8987940462991669 1.5572001973163107e-15 -0.43837114678907735
  outer loop
    vertex -44.144614059667575 12.556561952566696 20.113093577624007
    vertex -44.9233571596658 13.469604304483385 18.516433608094225
    vertex -44.26580043948219 13.469604304483376 19.864624677542977
  endloop
endfacet
facet normal 0.8987940462991669 1.5572001973163107e-15 -0.43837114678907735
  outer loop
    vertex -44.26580043948219 13.469604304483376 19.864624677542977
    vertex -44.9233571596658 13.469604304483385 18.516433608094225
    vertex -44.46261479210702 14.31132726717709 19.461095454278325
  endloop
endfacet
facet normal 0.8987940462991669 1.5572001973163107e-15 -0.43837114678907735
  outer loop
    vertex -44.46261479210702 14.31132726717709 19.461095454278325
    vertex -44.9233571596658 13.469604304483385 18.516433608094225
    vertex -45.120171512290646 14.311327267177091 18.112904384829577
  endloop
endfacet
facet normal 0.8987940462991669 1.5572001973163107e-15 -0.43837114678907735
  outer loop
    vertex -44.46261479210702 14.31132726717709 19.461095454278325
    vertex -45.120171512290646 14.311327267177091 18.112904384829577
    vertex -45.19962417184393 14.532725568731962 17.95000229172377
  endloop
endfacet
facet normal 0.8987940462991669 1.5572001973163107e-15 -0.43837114678907735
  outer loop
    vertex -44.46261479210702 14.31132726717709 19.461095454278325
    vertex -45.19962417184393 14.532725568731962 17.95000229172377
    vertex -44.727520404575706 15.04949831145255 18.9179584593779
  endloop
endfacet
facet normal 0.8987940462991669 1.5572001973163107e-15 -0.43837114678907735
  outer loop
    vertex -44.727520404575706 15.04949831145255 18.9179584593779
    vertex -45.19962417184393 14.532725568731962 17.95000229172377
    vertex -45.38507712475932 15.049498311452554 17.56976738992915
  endloop
endfacet
facet normal 0.8987940462991669 1.5572001973163107e-15 -0.43837114678907735
  outer loop
    vertex -44.727520404575706 15.04949831145255 18.9179584593779
    vertex -45.38507712475932 15.049498311452554 17.56976738992915
    vertex -45.70792983056297 15.655850274846255 16.907821246955674
  endloop
endfacet
facet normal 0.8987940462991669 1.5572001973163107e-15 -0.43837114678907735
  outer loop
    vertex -44.727520404575706 15.04949831145255 18.9179584593779
    vertex -45.70792983056297 15.655850274846255 16.907821246955674
    vertex -45.05037311037935 15.655850274846252 18.25601231640442
  endloop
endfacet
facet normal 0.8987940462991669 1.5572001973163107e-15 -0.43837114678907735
  outer loop
    vertex -45.05037311037935 15.655850274846252 18.25601231640442
    vertex -45.70792983056297 15.655850274846255 16.907821246955674
    vertex -46.0763664654221 16.107163810579106 16.15241419912545
  endloop
endfacet
facet normal 0.8987940462991669 1.5572001973163107e-15 -0.43837114678907735
  outer loop
    vertex -45.05037311037935 15.655850274846252 18.25601231640442
    vertex -46.0763664654221 16.107163810579106 16.15241419912545
    vertex -45.41880974523848 16.1071638105791 17.500605268574184
  endloop
endfacet
facet normal -0.28331667197286925 0.09652486200256169 -0.9541564936621267
  outer loop
    vertex -47.6768207373469 11.607163810579095 19.71451275524057
    vertex -44.802170779851174 10.6577656685915 18.764902508175247
    vertex -47.71773849214322 10.657765668591496 19.6306189253929
  endloop
endfacet
facet normal -0.28331667197286925 0.09652486200256169 -0.9541564936621267
  outer loop
    vertex -44.802170779851174 10.6577656685915 18.764902508175247
    vertex -47.6768207373469 11.607163810579095 19.71451275524057
    vertex -44.761253025054856 11.6071638105791 18.84879633802292
  endloop
endfacet
facet normal -0.2727419119808226 0.28616624807108143 -0.9185427197000504
  outer loop
    vertex -44.802170779851174 10.6577656685915 18.764902508175247
    vertex -47.83892487195784 9.74472331667482 19.38215002531186
    vertex -47.71773849214322 10.657765668591496 19.6306189253929
  endloop
endfacet
facet normal -0.2727419119808226 0.28616624807108143 -0.9185427197000504
  outer loop
    vertex -47.83892487195784 9.74472331667482 19.38215002531186
    vertex -44.802170779851174 10.6577656685915 18.764902508175247
    vertex -44.923357159665805 9.744723316674822 18.516433608094214
  endloop
endfacet
facet normal -0.25190717477100344 0.46562015149907177 -0.8483753000982954
  outer loop
    vertex -44.923357159665805 9.744723316674822 18.516433608094214
    vertex -48.035739224582684 8.903000353981108 18.978620802047207
    vertex -47.83892487195784 9.74472331667482 19.38215002531186
  endloop
endfacet
facet normal -0.25190717477100344 0.46562015149907177 -0.8483753000982954
  outer loop
    vertex -48.035739224582684 8.903000353981108 18.978620802047207
    vertex -44.923357159665805 9.744723316674822 18.516433608094214
    vertex -45.12017151229065 8.90300035398111 18.112904384829555
  endloop
endfacet
facet normal -0.2214584990703628 0.6282465988800862 -0.7458299700234005
  outer loop
    vertex -45.12017151229065 8.90300035398111 18.112904384829555
    vertex -48.11519188413598 8.681602052426243 18.81571870894139
    vertex -48.035739224582684 8.903000353981108 18.978620802047207
  endloop
endfacet
facet normal -0.2214584990703628 0.6282465988800862 -0.7458299700234005
  outer loop
    vertex -48.11519188413598 8.681602052426243 18.81571870894139
    vertex -45.38507712475932 8.164829309705656 17.569767389929122
    vertex -48.300644837051365 8.164829309705652 18.43548380714677
  endloop
endfacet
facet normal -0.2214584990703628 0.6282465988800862 -0.7458299700234005
  outer loop
    vertex -45.38507712475932 8.164829309705656 17.569767389929122
    vertex -48.11519188413598 8.681602052426243 18.81571870894139
    vertex -45.12017151229065 8.90300035398111 18.112904384829555
  endloop
endfacet
facet normal -0.2214584990703628 0.6282465988800862 -0.7458299700234005
  outer loop
    vertex -45.38507712475932 8.164829309705656 17.569767389929122
    vertex -45.12017151229065 8.90300035398111 18.112904384829555
    vertex -45.19962417184394 8.681602052426243 17.950002291723745
  endloop
endfacet
facet normal -0.1360973631976508 0.8782897185249127 -0.4583499515262071
  outer loop
    vertex -48.623497542855006 7.558477346311953 17.773537664173297
    vertex -46.0763664654221 7.107163810579109 16.152414199125417
    vertex -48.99193417771414 7.107163810579106 17.018130616343065
  endloop
endfacet
facet normal -0.1360973631976508 0.8782897185249127 -0.4583499515262071
  outer loop
    vertex -46.0763664654221 7.107163810579109 16.152414199125417
    vertex -48.623497542855006 7.558477346311953 17.773537664173297
    vertex -45.70792983056297 7.558477346311956 16.907821246955635
  endloop
endfacet
facet normal -0.18239742136992682 0.7677184474327085 -0.6142797132814279
  outer loop
    vertex -48.300644837051365 8.164829309705652 18.43548380714677
    vertex -45.70792983056297 7.558477346311956 16.907821246955635
    vertex -48.623497542855006 7.558477346311953 17.773537664173297
  endloop
endfacet
facet normal -0.18239742136992682 0.7677184474327085 -0.6142797132814279
  outer loop
    vertex -45.70792983056297 7.558477346311956 16.907821246955635
    vertex -48.300644837051365 8.164829309705652 18.43548380714677
    vertex -45.38507712475932 8.164829309705656 17.569767389929122
  endloop
endfacet
facet normal -0.28331667197286875 -0.09652486200255321 -0.9541564936621277
  outer loop
    vertex -44.802170779851174 12.5565619525667 18.764902508175254
    vertex -47.6768207373469 11.607163810579095 19.71451275524057
    vertex -47.71773849214322 12.556561952566698 19.63061892539291
  endloop
endfacet
facet normal -0.28331667197286875 -0.09652486200255321 -0.9541564936621277
  outer loop
    vertex -47.6768207373469 11.607163810579095 19.71451275524057
    vertex -44.802170779851174 12.5565619525667 18.764902508175254
    vertex -44.761253025054856 11.6071638105791 18.84879633802292
  endloop
endfacet
facet normal -0.2727419119808227 -0.28616624807107394 -0.9185427197000527
  outer loop
    vertex -47.83892487195784 13.469604304483383 19.382150025311873
    vertex -44.802170779851174 12.5565619525667 18.764902508175254
    vertex -47.71773849214322 12.556561952566698 19.63061892539291
  endloop
endfacet
facet normal -0.2727419119808227 -0.28616624807107394 -0.9185427197000527
  outer loop
    vertex -44.802170779851174 12.5565619525667 18.764902508175254
    vertex -47.83892487195784 13.469604304483383 19.382150025311873
    vertex -44.9233571596658 13.469604304483385 18.516433608094225
  endloop
endfacet
facet normal -0.251907174771003 -0.4656201514990685 -0.8483753000982973
  outer loop
    vertex -45.120171512290646 14.311327267177091 18.112904384829577
    vertex -47.83892487195784 13.469604304483383 19.382150025311873
    vertex -48.035739224582684 14.311327267177091 18.978620802047224
  endloop
endfacet
facet normal -0.251907174771003 -0.4656201514990685 -0.8483753000982973
  outer loop
    vertex -47.83892487195784 13.469604304483383 19.382150025311873
    vertex -45.120171512290646 14.311327267177091 18.112904384829577
    vertex -44.9233571596658 13.469604304483385 18.516433608094225
  endloop
endfacet
facet normal -0.22145849907036305 -0.6282465988800796 -0.7458299700234058
  outer loop
    vertex -45.38507712475932 15.049498311452554 17.56976738992915
    vertex -48.115191884135974 14.532725568731957 18.81571870894141
    vertex -48.30064483705138 15.04949831145255 18.435483807146802
  endloop
endfacet
facet normal -0.22145849907036305 -0.6282465988800796 -0.7458299700234058
  outer loop
    vertex -48.115191884135974 14.532725568731957 18.81571870894141
    vertex -45.38507712475932 15.049498311452554 17.56976738992915
    vertex -48.035739224582684 14.311327267177091 18.978620802047224
  endloop
endfacet
facet normal -0.22145849907036305 -0.6282465988800796 -0.7458299700234058
  outer loop
    vertex -48.035739224582684 14.311327267177091 18.978620802047224
    vertex -45.38507712475932 15.049498311452554 17.56976738992915
    vertex -45.120171512290646 14.311327267177091 18.112904384829577
  endloop
endfacet
facet normal -0.22145849907036305 -0.6282465988800796 -0.7458299700234058
  outer loop
    vertex -45.120171512290646 14.311327267177091 18.112904384829577
    vertex -45.38507712475932 15.049498311452554 17.56976738992915
    vertex -45.19962417184393 14.532725568731962 17.95000229172377
  endloop
endfacet
facet normal -0.1823974213699266 -0.767718447432705 -0.6142797132814323
  outer loop
    vertex -45.70792983056297 15.655850274846255 16.907821246955674
    vertex -48.30064483705138 15.04949831145255 18.435483807146802
    vertex -48.623497542855006 15.655850274846252 17.773537664173325
  endloop
endfacet
facet normal -0.1823974213699266 -0.767718447432705 -0.6142797132814323
  outer loop
    vertex -48.30064483705138 15.04949831145255 18.435483807146802
    vertex -45.70792983056297 15.655850274846255 16.907821246955674
    vertex -45.38507712475932 15.049498311452554 17.56976738992915
  endloop
endfacet
facet normal -0.13609736319765048 -0.8782897185249103 -0.45834995152621183
  outer loop
    vertex -46.0763664654221 16.107163810579106 16.15241419912545
    vertex -48.623497542855006 15.655850274846252 17.773537664173325
    vertex -48.99193417771414 16.107163810579102 17.018130616343097
  endloop
endfacet
facet normal -0.13609736319765048 -0.8782897185249103 -0.45834995152621183
  outer loop
    vertex -48.623497542855006 15.655850274846252 17.773537664173325
    vertex -46.0763664654221 16.107163810579106 16.15241419912545
    vertex -45.70792983056297 15.655850274846255 16.907821246955674
  endloop
endfacet
endsolid Complete Setup
